<svg width="11" height="10" viewBox="0 0 11 10" fill="none" xmlns="http://www.w3.org/2000/svg">
<mask id="mask0_53_365" style="mask-type:luminance" maskUnits="userSpaceOnUse" x="0" y="0" width="11" height="10">
<path d="M10.1765 0H0.25293V10H10.1765V0Z" fill="white"/>
</mask>
<g mask="url(#mask0_53_365)">
<mask id="mask1_53_365" style="mask-type:luminance" maskUnits="userSpaceOnUse" x="0" y="0" width="11" height="10">
<path d="M0.25293 0H10.1765V10H0.25293V0Z" fill="white"/>
</mask>
<g mask="url(#mask1_53_365)">
<path d="M9.6539 5.26313C9.6539 4.72022 9.55806 4.20022 9.3823 3.71891C9.26217 5.13707 8.51189 5.86549 7.72793 5.52627C6.99334 5.20838 7.48847 3.96918 7.52502 3.37785C7.58666 2.37549 7.52188 1.22812 5.71502 0.27417C6.46582 1.72154 5.80198 2.62049 5.10549 2.67549C4.33302 2.73602 3.62585 2.00654 3.88699 0.822329C3.04139 1.45022 3.01658 2.50707 3.27748 3.19074C3.54958 3.90338 3.26676 4.49549 2.60293 4.56127C1.86154 4.63496 1.44945 3.76102 1.82942 2.36838C1.14731 3.17611 0.773409 4.2025 0.774907 5.26313C0.774907 7.73391 2.7625 9.7368 5.2144 9.7368C7.6663 9.7368 9.6539 7.73391 9.6539 5.26313Z" fill="#F4900C"/>
</g>
<mask id="mask2_53_365" style="mask-type:luminance" maskUnits="userSpaceOnUse" x="0" y="0" width="10" height="10">
<path d="M5.105 2.67573C4.33281 2.73651 3.62536 2.00679 3.8865 0.822573C3.04065 1.45047 3.01636 2.50757 3.27724 3.19099C3.5491 3.90362 3.26627 4.49573 2.60244 4.56151C1.86105 4.63521 1.44922 3.76099 1.82893 2.36862C1.14682 3.17636 0.77292 4.20274 0.774419 5.26337C0.774419 7.73415 2.76201 9.73705 5.21391 9.73705C7.66581 9.73705 9.65341 7.73415 9.65341 5.26337C9.65341 4.72046 9.55757 4.20046 9.38181 3.71915C9.26168 5.13704 8.51141 5.86573 7.72744 5.52651C6.9931 5.20862 7.48798 3.96942 7.52453 3.3781C7.58617 2.37573 7.52139 1.22836 5.71453 0.274414C6.46533 1.72152 5.8015 2.62099 5.105 2.67573Z" fill="white"/>
</mask>
<g mask="url(#mask2_53_365)">
<path d="M8.3481 8.15821C8.3481 7.58268 8.1956 7.04349 7.92896 6.57901C7.96736 7.39058 7.2599 7.70874 6.87915 7.55507C6.32944 7.33321 6.47673 6.95216 6.33518 6.16269C6.19363 5.37321 5.64968 4.82479 4.84429 4.58374C5.43188 6.25032 4.51864 6.86454 4.03996 6.97427C3.55109 7.08638 3.05987 6.97401 3.00372 5.91979C2.71074 6.21296 2.47831 6.56171 2.31986 6.94591C2.16141 7.33013 2.08008 7.74216 2.08057 8.15821C2.08057 9.90216 3.48371 11.3161 5.21434 11.3161C6.94496 11.3161 8.3481 9.90216 8.3481 8.15821Z" fill="#FFCC4D"/>
</g>
</g>
</svg>
