<svg width="282" height="174" viewBox="0 0 282 174" fill="none" xmlns="http://www.w3.org/2000/svg">
<g filter="url(#filter0_d_130_2249)">
<rect x="7" y="54.4175" width="91" height="110" rx="14" fill="#EFEEEE"/>
</g>
<g filter="url(#filter1_d_130_2249)">
<rect x="184" y="54.4175" width="91" height="110" rx="14" fill="#EFEEEE"/>
</g>
<g filter="url(#filter2_d_130_2249)">
<rect x="93" y="6" width="95" height="114.835" rx="14.6154" fill="#EFEEEE"/>
</g>
<path d="M101.442 18.8294C101.442 18.0168 101.629 17.2879 102.004 16.6426C102.386 15.9973 102.9 15.4954 103.545 15.1369C104.199 14.7704 104.912 14.5872 105.684 14.5872C106.569 14.5872 107.353 14.8063 108.039 15.2444C108.732 15.6746 109.234 16.2881 109.544 17.0847H107.907C107.692 16.6466 107.393 16.3199 107.011 16.1048C106.628 15.8897 106.186 15.7822 105.684 15.7822C105.135 15.7822 104.645 15.9057 104.215 16.1526C103.784 16.3996 103.446 16.7541 103.199 17.2162C102.96 17.6782 102.84 18.216 102.84 18.8294C102.84 19.4429 102.96 19.9806 103.199 20.4427C103.446 20.9048 103.784 21.2633 104.215 21.5182C104.645 21.7652 105.135 21.8886 105.684 21.8886C106.186 21.8886 106.628 21.7811 107.011 21.566C107.393 21.3509 107.692 21.0243 107.907 20.5861H109.544C109.234 21.3828 108.732 21.9962 108.039 22.4264C107.353 22.8566 106.569 23.0717 105.684 23.0717C104.904 23.0717 104.191 22.8924 103.545 22.5339C102.9 22.1675 102.386 21.6616 102.004 21.0163C101.629 20.371 101.442 19.642 101.442 18.8294ZM117.102 16.4155V23H115.74V22.2232C115.525 22.4941 115.242 22.7092 114.891 22.8685C114.549 23.0199 114.182 23.0956 113.792 23.0956C113.274 23.0956 112.808 22.988 112.394 22.7729C111.987 22.5578 111.665 22.2392 111.426 21.8169C111.195 21.3947 111.079 20.8848 111.079 20.2873V16.4155H112.429V20.0842C112.429 20.6737 112.577 21.1278 112.872 21.4465C113.166 21.7572 113.569 21.9125 114.079 21.9125C114.588 21.9125 114.991 21.7572 115.286 21.4465C115.588 21.1278 115.74 20.6737 115.74 20.0842V16.4155H117.102ZM120.262 17.3715C120.461 17.0369 120.724 16.778 121.05 16.5948C121.385 16.4036 121.779 16.308 122.233 16.308V17.7181H121.887C121.353 17.7181 120.947 17.8535 120.668 18.1244C120.397 18.3953 120.262 18.8653 120.262 19.5345V23H118.899V16.4155H120.262V17.3715ZM124.848 17.3715C125.047 17.0369 125.31 16.778 125.637 16.5948C125.971 16.4036 126.366 16.308 126.82 16.308V17.7181H126.473C125.939 17.7181 125.533 17.8535 125.254 18.1244C124.983 18.3953 124.848 18.8653 124.848 19.5345V23H123.486V16.4155H124.848V17.3715ZM134.107 19.5464C134.107 19.7934 134.091 20.0165 134.059 20.2156H129.028C129.068 20.7414 129.263 21.1637 129.614 21.4823C129.964 21.801 130.394 21.9603 130.904 21.9603C131.637 21.9603 132.155 21.6536 132.458 21.0402H133.927C133.728 21.6457 133.366 22.1436 132.84 22.5339C132.322 22.9163 131.677 23.1076 130.904 23.1076C130.275 23.1076 129.709 22.9681 129.207 22.6893C128.713 22.4025 128.323 22.0042 128.036 21.4943C127.757 20.9765 127.618 20.379 127.618 19.7018C127.618 19.0246 127.753 18.4311 128.024 17.9212C128.303 17.4034 128.689 17.0051 129.183 16.7262C129.685 16.4474 130.259 16.308 130.904 16.308C131.526 16.308 132.079 16.4434 132.565 16.7143C133.051 16.9851 133.43 17.3675 133.7 17.8615C133.971 18.3475 134.107 18.9091 134.107 19.5464ZM132.685 19.1162C132.677 18.6143 132.497 18.212 132.147 17.9093C131.796 17.6065 131.362 17.4552 130.844 17.4552C130.374 17.4552 129.972 17.6065 129.637 17.9093C129.303 18.204 129.104 18.6064 129.04 19.1162H132.685ZM138.77 16.308C139.287 16.308 139.749 16.4155 140.156 16.6306C140.57 16.8457 140.893 17.1644 141.124 17.5866C141.355 18.0089 141.47 18.5187 141.47 19.1162V23H140.12V19.3194C140.12 18.7299 139.972 18.2797 139.678 17.969C139.383 17.6504 138.981 17.491 138.471 17.491C137.961 17.491 137.555 17.6504 137.252 17.969C136.957 18.2797 136.81 18.7299 136.81 19.3194V23H135.447V16.4155H136.81V17.1684C137.033 16.8975 137.316 16.6864 137.658 16.535C138.009 16.3837 138.379 16.308 138.77 16.308ZM144.797 17.5269V21.1716C144.797 21.4186 144.853 21.5979 144.965 21.7094C145.084 21.813 145.283 21.8647 145.562 21.8647H146.399V23H145.323C144.71 23 144.24 22.8566 143.913 22.5698C143.586 22.283 143.423 21.8169 143.423 21.1716V17.5269H142.646V16.4155H143.423V14.7784H144.797V16.4155H146.399V17.5269H144.797ZM155.072 23L153.16 19.6779H152.121V23H150.758V14.6947H153.626C154.264 14.6947 154.801 14.8063 155.24 15.0293C155.686 15.2524 156.016 15.5511 156.232 15.9256C156.455 16.3 156.566 16.7183 156.566 17.1803C156.566 17.7221 156.407 18.216 156.088 18.6621C155.777 19.1003 155.295 19.3991 154.642 19.5584L156.698 23H155.072ZM152.121 18.5904H153.626C154.136 18.5904 154.519 18.463 154.774 18.208C155.036 17.9531 155.168 17.6105 155.168 17.1803C155.168 16.7501 155.04 16.4155 154.786 16.1765C154.531 15.9296 154.144 15.8061 153.626 15.8061H152.121V18.5904ZM157.855 19.6779C157.855 19.0167 157.99 18.4311 158.261 17.9212C158.54 17.4114 158.914 17.017 159.384 16.7382C159.862 16.4514 160.388 16.308 160.962 16.308C161.48 16.308 161.93 16.4115 162.312 16.6187C162.702 16.8178 163.013 17.0688 163.244 17.3715V16.4155H164.618V23H163.244V22.0201C163.013 22.3308 162.698 22.5897 162.3 22.7968C161.902 23.004 161.448 23.1076 160.938 23.1076C160.372 23.1076 159.854 22.9641 159.384 22.6773C158.914 22.3826 158.54 21.9763 158.261 21.4584C157.99 20.9326 157.855 20.3391 157.855 19.6779ZM163.244 19.7018C163.244 19.2477 163.149 18.8533 162.957 18.5187C162.774 18.1841 162.531 17.9292 162.228 17.7539C161.926 17.5787 161.599 17.491 161.249 17.491C160.898 17.491 160.571 17.5787 160.269 17.7539C159.966 17.9212 159.719 18.1722 159.528 18.5068C159.345 18.8334 159.253 19.2238 159.253 19.6779C159.253 20.132 159.345 20.5303 159.528 20.8729C159.719 21.2155 159.966 21.4784 160.269 21.6616C160.579 21.8369 160.906 21.9245 161.249 21.9245C161.599 21.9245 161.926 21.8369 162.228 21.6616C162.531 21.4863 162.774 21.2314 162.957 20.8968C163.149 20.5542 163.244 20.1559 163.244 19.7018ZM169.73 16.308C170.248 16.308 170.71 16.4155 171.116 16.6306C171.53 16.8457 171.853 17.1644 172.084 17.5866C172.315 18.0089 172.431 18.5187 172.431 19.1162V23H171.08V19.3194C171.08 18.7299 170.933 18.2797 170.638 17.969C170.343 17.6504 169.941 17.491 169.431 17.491C168.921 17.491 168.515 17.6504 168.212 17.969C167.917 18.2797 167.77 18.7299 167.77 19.3194V23H166.408V16.4155H167.77V17.1684C167.993 16.8975 168.276 16.6864 168.619 16.535C168.969 16.3837 169.34 16.308 169.73 16.308ZM176.773 19.7137L179.809 23H177.968L175.531 20.1678V23H174.168V14.157H175.531V19.2955L177.921 16.4155H179.809L176.773 19.7137Z" fill="black"/>
<path d="M17.704 64.7792C17.704 65.2015 17.6044 65.5998 17.4052 65.9742C17.2061 66.3487 16.8874 66.6554 16.4492 66.8944C16.0111 67.1254 15.4494 67.2409 14.7643 67.2409H13.2586V70.6108H11.8963V62.3056H14.7643C15.4016 62.3056 15.9394 62.4171 16.3775 62.6402C16.8237 62.8553 17.1543 63.15 17.3694 63.5245C17.5924 63.8989 17.704 64.3172 17.704 64.7792ZM14.7643 66.1296C15.2821 66.1296 15.6685 66.0141 15.9234 65.783C16.1784 65.544 16.3058 65.2094 16.3058 64.7792C16.3058 63.871 15.792 63.4169 14.7643 63.4169H13.2586V66.1296H14.7643ZM20.3656 64.9824C20.5647 64.6478 20.8276 64.3889 21.1543 64.2056C21.4889 64.0144 21.8832 63.9188 22.3373 63.9188V65.3289H21.9908C21.457 65.3289 21.0507 65.4644 20.7719 65.7352C20.501 66.0061 20.3656 66.4761 20.3656 67.1453V70.6108H19.0033V64.0264H20.3656V64.9824ZM29.6243 67.1573C29.6243 67.4042 29.6084 67.6273 29.5765 67.8265H24.5456C24.5854 68.3523 24.7806 68.7745 25.1311 69.0932C25.4816 69.4119 25.9118 69.5712 26.4217 69.5712C27.1547 69.5712 27.6725 69.2645 27.9752 68.651H29.4451C29.2459 69.2565 28.8834 69.7544 28.3576 70.1448C27.8398 70.5272 27.1945 70.7184 26.4217 70.7184C25.7923 70.7184 25.2267 70.579 24.7248 70.3001C24.2309 70.0133 23.8405 69.615 23.5537 69.1051C23.2749 68.5873 23.1355 67.9898 23.1355 67.3126C23.1355 66.6355 23.2709 66.0419 23.5418 65.5321C23.8206 65.0142 24.207 64.6159 24.7009 64.3371C25.2028 64.0582 25.7764 63.9188 26.4217 63.9188C27.0431 63.9188 27.5968 64.0543 28.0828 64.3251C28.5687 64.596 28.9472 64.9784 29.218 65.4723C29.4889 65.9583 29.6243 66.5199 29.6243 67.1573ZM28.2023 66.7271C28.1943 66.2252 28.0151 65.8229 27.6645 65.5201C27.314 65.2174 26.8798 65.066 26.362 65.066C25.8919 65.066 25.4896 65.2174 25.155 65.5201C24.8204 65.8149 24.6212 66.2172 24.5575 66.7271H28.2023ZM33.5103 69.3919L35.3745 64.0264H36.8205L34.311 70.6108H32.6858L30.1882 64.0264H31.6461L33.5103 69.3919ZM38.5434 63.154C38.2964 63.154 38.0892 63.0704 37.9219 62.9031C37.7546 62.7358 37.671 62.5286 37.671 62.2817C37.671 62.0347 37.7546 61.8276 37.9219 61.6603C38.0892 61.493 38.2964 61.4093 38.5434 61.4093C38.7824 61.4093 38.9855 61.493 39.1528 61.6603C39.3201 61.8276 39.4038 62.0347 39.4038 62.2817C39.4038 62.5286 39.3201 62.7358 39.1528 62.9031C38.9855 63.0704 38.7824 63.154 38.5434 63.154ZM39.2126 64.0264V70.6108H37.8502V64.0264H39.2126ZM43.8572 70.7184C43.2358 70.7184 42.6741 70.579 42.1722 70.3001C41.6703 70.0133 41.276 69.615 40.9892 69.1051C40.7024 68.5873 40.559 67.9898 40.559 67.3126C40.559 66.6434 40.7064 66.0499 41.0011 65.5321C41.2959 65.0142 41.6982 64.6159 42.2081 64.3371C42.718 64.0582 43.2876 63.9188 43.9169 63.9188C44.5463 63.9188 45.1159 64.0582 45.6258 64.3371C46.1357 64.6159 46.538 65.0142 46.8328 65.5321C47.1275 66.0499 47.2749 66.6434 47.2749 67.3126C47.2749 67.9818 47.1235 68.5753 46.8208 69.0932C46.5181 69.611 46.1038 70.0133 45.578 70.3001C45.0602 70.579 44.4866 70.7184 43.8572 70.7184ZM43.8572 69.5353C44.2077 69.5353 44.5344 69.4517 44.8371 69.2844C45.1478 69.1171 45.3988 68.8661 45.59 68.5315C45.7812 68.1969 45.8768 67.7906 45.8768 67.3126C45.8768 66.8346 45.7851 66.4323 45.6019 66.1057C45.4187 65.7711 45.1757 65.5201 44.873 65.3528C44.5702 65.1855 44.2436 65.1019 43.893 65.1019C43.5425 65.1019 43.2159 65.1855 42.9131 65.3528C42.6184 65.5201 42.3834 65.7711 42.2081 66.1057C42.0328 66.4323 41.9452 66.8346 41.9452 67.3126C41.9452 68.0217 42.1244 68.5714 42.4829 68.9617C42.8494 69.3441 43.3075 69.5353 43.8572 69.5353ZM54.5847 64.0264V70.6108H53.2224V69.8341C53.0073 70.105 52.7245 70.3201 52.3739 70.4794C52.0314 70.6308 51.6649 70.7064 51.2745 70.7064C50.7567 70.7064 50.2906 70.5989 49.8764 70.3838C49.4701 70.1687 49.1474 69.85 48.9084 69.4278C48.6774 69.0056 48.5619 68.4957 48.5619 67.8982V64.0264H49.9122V67.695C49.9122 68.2846 50.0596 68.7387 50.3544 69.0573C50.6491 69.368 51.0515 69.5234 51.5613 69.5234C52.0712 69.5234 52.4735 69.368 52.7683 69.0573C53.071 68.7387 53.2224 68.2846 53.2224 67.695V64.0264H54.5847ZM58.7722 70.7184C58.2543 70.7184 57.7883 70.6268 57.374 70.4435C56.9677 70.2523 56.645 69.9974 56.406 69.6787C56.167 69.3521 56.0396 68.9896 56.0236 68.5913H57.4337C57.4577 68.8701 57.5891 69.1051 57.8281 69.2963C58.0751 69.4796 58.3818 69.5712 58.7483 69.5712C59.1307 69.5712 59.4254 69.4995 59.6326 69.3561C59.8477 69.2047 59.9552 69.0135 59.9552 68.7825C59.9552 68.5355 59.8357 68.3523 59.5967 68.2328C59.3657 68.1133 58.9952 67.9818 58.4854 67.8384C57.9914 67.703 57.5891 67.5715 57.2784 67.4441C56.9677 67.3166 56.6968 67.1214 56.4658 66.8585C56.2427 66.5956 56.1312 66.2491 56.1312 65.8189C56.1312 65.4683 56.2348 65.1497 56.4419 64.8629C56.649 64.5681 56.9438 64.3371 57.3262 64.1698C57.7166 64.0025 58.1627 63.9188 58.6646 63.9188C59.4135 63.9188 60.015 64.11 60.4691 64.4924C60.9311 64.8669 61.1781 65.3807 61.21 66.034H59.8477C59.8238 65.7392 59.7043 65.5042 59.4892 65.3289C59.2741 65.1537 58.9833 65.066 58.6168 65.066C58.2583 65.066 57.9835 65.1337 57.7923 65.2692C57.6011 65.4046 57.5055 65.5839 57.5055 65.8069C57.5055 65.9822 57.5692 66.1296 57.6967 66.2491C57.8241 66.3686 57.9795 66.4642 58.1627 66.5359C58.3459 66.5996 58.6168 66.6833 58.9753 66.7868C59.4533 66.9143 59.8437 67.0457 60.1464 67.1812C60.4571 67.3086 60.724 67.4998 60.9471 67.7548C61.1701 68.0097 61.2856 68.3483 61.2936 68.7705C61.2936 69.145 61.19 69.4796 60.9829 69.7743C60.7758 70.0691 60.481 70.3001 60.0986 70.4674C59.7242 70.6347 59.282 70.7184 58.7722 70.7184ZM67.2321 64.9824C67.4313 64.6478 67.6942 64.3889 68.0208 64.2056C68.3554 64.0144 68.7498 63.9188 69.2039 63.9188V65.3289H68.8573C68.3236 65.3289 67.9173 65.4644 67.6384 65.7352C67.3676 66.0061 67.2321 66.4761 67.2321 67.1453V70.6108H65.8698V64.0264H67.2321V64.9824ZM70.002 67.2887C70.002 66.6275 70.1375 66.0419 70.4083 65.5321C70.6872 65.0222 71.0616 64.6279 71.5316 64.349C72.0096 64.0622 72.5354 63.9188 73.109 63.9188C73.6269 63.9188 74.077 64.0224 74.4594 64.2295C74.8498 64.4287 75.1605 64.6796 75.3915 64.9824V64.0264H76.7657V70.6108H75.3915V69.6309C75.1605 69.9416 74.8458 70.2006 74.4474 70.4077C74.0491 70.6148 73.595 70.7184 73.0851 70.7184C72.5195 70.7184 72.0017 70.575 71.5316 70.2882C71.0616 69.9934 70.6872 69.5871 70.4083 69.0693C70.1375 68.5435 70.002 67.95 70.002 67.2887ZM75.3915 67.3126C75.3915 66.8585 75.2959 66.4642 75.1047 66.1296C74.9215 65.795 74.6785 65.54 74.3757 65.3648C74.073 65.1895 73.7464 65.1019 73.3958 65.1019C73.0453 65.1019 72.7187 65.1895 72.4159 65.3648C72.1132 65.5321 71.8662 65.783 71.675 66.1176C71.4918 66.4443 71.4002 66.8346 71.4002 67.2887C71.4002 67.7428 71.4918 68.1412 71.675 68.4837C71.8662 68.8263 72.1132 69.0892 72.4159 69.2724C72.7266 69.4477 73.0533 69.5353 73.3958 69.5353C73.7464 69.5353 74.073 69.4477 74.3757 69.2724C74.6785 69.0972 74.9215 68.8422 75.1047 68.5076C75.2959 68.1651 75.3915 67.7667 75.3915 67.3126ZM81.8772 63.9188C82.395 63.9188 82.8571 64.0264 83.2634 64.2415C83.6777 64.4566 84.0003 64.7752 84.2313 65.1975C84.4624 65.6197 84.5779 66.1296 84.5779 66.7271V70.6108H83.2275V66.9302C83.2275 66.3407 83.0802 65.8906 82.7854 65.5799C82.4906 65.2612 82.0883 65.1019 81.5784 65.1019C81.0686 65.1019 80.6623 65.2612 80.3595 65.5799C80.0648 65.8906 79.9174 66.3407 79.9174 66.9302V70.6108H78.5551V64.0264H79.9174V64.7792C80.1404 64.5084 80.4233 64.2972 80.7658 64.1459C81.1164 63.9945 81.4868 63.9188 81.8772 63.9188ZM88.9207 67.3246L91.956 70.6108H90.1157L87.6779 67.7787V70.6108H86.3156V61.7678H87.6779V66.9063L90.0679 64.0264H91.956L88.9207 67.3246Z" fill="black"/>
<path d="M195.932 65.7228V71.4175H194.754V70.7457C194.568 70.98 194.324 71.166 194.02 71.3038C193.724 71.4347 193.407 71.5002 193.07 71.5002C192.622 71.5002 192.219 71.4071 191.86 71.2211C191.509 71.0351 191.23 70.7595 191.023 70.3943C190.823 70.0291 190.723 69.5882 190.723 69.0714V65.7228H191.891V68.8957C191.891 69.4056 192.019 69.7983 192.274 70.0739C192.529 70.3426 192.877 70.477 193.318 70.477C193.759 70.477 194.107 70.3426 194.361 70.0739C194.623 69.7983 194.754 69.4056 194.754 68.8957V65.7228H195.932ZM198.665 66.5599C198.865 66.2981 199.137 66.0776 199.482 65.8985C199.826 65.7193 200.215 65.6298 200.65 65.6298C201.146 65.6298 201.597 65.7538 202.003 66.0018C202.417 66.243 202.741 66.5841 202.975 67.025C203.209 67.466 203.326 67.9724 203.326 68.5443C203.326 69.1162 203.209 69.6295 202.975 70.0842C202.741 70.5321 202.417 70.8835 202.003 71.1384C201.597 71.3865 201.146 71.5105 200.65 71.5105C200.215 71.5105 199.83 71.4244 199.492 71.2521C199.154 71.073 198.879 70.8525 198.665 70.5907V74.1253H197.487V65.7228H198.665V66.5599ZM202.127 68.5443C202.127 68.1516 202.045 67.8139 201.879 67.5314C201.721 67.2421 201.507 67.025 201.239 66.8803C200.977 66.7287 200.694 66.653 200.391 66.653C200.095 66.653 199.812 66.7287 199.544 66.8803C199.282 67.0319 199.068 67.2524 198.903 67.5418C198.744 67.8312 198.665 68.1722 198.665 68.565C198.665 68.9577 198.744 69.3022 198.903 69.5985C199.068 69.8879 199.282 70.1084 199.544 70.2599C199.812 70.4115 200.095 70.4873 200.391 70.4873C200.694 70.4873 200.977 70.4115 201.239 70.2599C201.507 70.1015 201.721 69.8741 201.879 69.5778C202.045 69.2815 202.127 68.937 202.127 68.5443ZM204.099 68.565C204.099 67.9793 204.216 67.466 204.45 67.025C204.691 66.5772 205.022 66.2327 205.442 65.9915C205.863 65.7503 206.345 65.6298 206.889 65.6298C207.578 65.6298 208.147 65.7951 208.595 66.1259C209.049 66.4497 209.356 66.9148 209.514 67.5211H208.243C208.14 67.2386 207.974 67.0181 207.747 66.8597C207.52 66.7012 207.234 66.622 206.889 66.622C206.407 66.622 206.021 66.7942 205.732 67.1387C205.449 67.4763 205.308 67.9517 205.308 68.565C205.308 69.1782 205.449 69.6571 205.732 70.0016C206.021 70.3461 206.407 70.5183 206.889 70.5183C207.571 70.5183 208.023 70.2186 208.243 69.6192H209.514C209.349 70.1979 209.039 70.6596 208.584 71.0041C208.129 71.3417 207.564 71.5105 206.889 71.5105C206.345 71.5105 205.863 71.3899 205.442 71.1488C205.022 70.9007 204.691 70.5562 204.45 70.1152C204.216 69.6674 204.099 69.1506 204.099 68.565ZM213.159 71.5105C212.621 71.5105 212.135 71.3899 211.701 71.1488C211.267 70.9007 210.926 70.5562 210.678 70.1152C210.43 69.6674 210.306 69.1506 210.306 68.565C210.306 67.9862 210.434 67.4729 210.689 67.025C210.943 66.5772 211.291 66.2327 211.732 65.9915C212.173 65.7503 212.666 65.6298 213.21 65.6298C213.755 65.6298 214.247 65.7503 214.688 65.9915C215.129 66.2327 215.477 66.5772 215.732 67.025C215.987 67.4729 216.115 67.9862 216.115 68.565C216.115 69.1437 215.984 69.6571 215.722 70.1049C215.46 70.5528 215.102 70.9007 214.647 71.1488C214.199 71.3899 213.703 71.5105 213.159 71.5105ZM213.159 70.4873C213.462 70.4873 213.744 70.415 214.006 70.2703C214.275 70.1256 214.492 69.9085 214.657 69.6192C214.823 69.3298 214.905 68.9784 214.905 68.565C214.905 68.1516 214.826 67.8036 214.668 67.5211C214.509 67.2317 214.299 67.0147 214.037 66.87C213.775 66.7253 213.493 66.653 213.19 66.653C212.887 66.653 212.604 66.7253 212.342 66.87C212.087 67.0147 211.884 67.2317 211.732 67.5211C211.581 67.8036 211.505 68.1516 211.505 68.565C211.505 69.1782 211.66 69.6536 211.97 69.9912C212.287 70.3219 212.683 70.4873 213.159 70.4873ZM224.173 65.6298C224.621 65.6298 225.02 65.7228 225.372 65.9088C225.73 66.0949 226.009 66.3705 226.209 66.7356C226.416 67.1008 226.519 67.5418 226.519 68.0585V71.4175H225.351V68.2342C225.351 67.7244 225.224 67.3351 224.969 67.0664C224.714 66.7908 224.366 66.653 223.925 66.653C223.484 66.653 223.132 66.7908 222.871 67.0664C222.616 67.3351 222.488 67.7244 222.488 68.2342V71.4175H221.32V68.2342C221.32 67.7244 221.193 67.3351 220.938 67.0664C220.683 66.7908 220.335 66.653 219.894 66.653C219.453 66.653 219.102 66.7908 218.84 67.0664C218.585 67.3351 218.457 67.7244 218.457 68.2342V71.4175H217.279V65.7228H218.457V66.3739C218.65 66.1396 218.895 65.9571 219.191 65.8261C219.488 65.6952 219.804 65.6298 220.142 65.6298C220.597 65.6298 221.003 65.7262 221.362 65.9192C221.72 66.1121 221.996 66.3911 222.188 66.7563C222.361 66.4118 222.629 66.1396 222.995 65.9398C223.36 65.7331 223.753 65.6298 224.173 65.6298ZM228.618 64.9683C228.404 64.9683 228.225 64.896 228.08 64.7513C227.935 64.6066 227.863 64.4274 227.863 64.2138C227.863 64.0003 227.935 63.8211 228.08 63.6764C228.225 63.5317 228.404 63.4594 228.618 63.4594C228.824 63.4594 229 63.5317 229.145 63.6764C229.289 63.8211 229.362 64.0003 229.362 64.2138C229.362 64.4274 229.289 64.6066 229.145 64.7513C229 64.896 228.824 64.9683 228.618 64.9683ZM229.196 65.7228V71.4175H228.018V65.7228H229.196ZM233.616 65.6298C234.064 65.6298 234.464 65.7228 234.815 65.9088C235.174 66.0949 235.453 66.3705 235.652 66.7356C235.852 67.1008 235.952 67.5418 235.952 68.0585V71.4175H234.784V68.2342C234.784 67.7244 234.657 67.3351 234.402 67.0664C234.147 66.7908 233.799 66.653 233.358 66.653C232.917 66.653 232.566 66.7908 232.304 67.0664C232.049 67.3351 231.921 67.7244 231.921 68.2342V71.4175H230.743V65.7228H231.921V66.3739C232.114 66.1396 232.359 65.9571 232.655 65.8261C232.958 65.6952 233.279 65.6298 233.616 65.6298ZM239.75 65.6298C240.19 65.6298 240.58 65.7193 240.917 65.8985C241.262 66.0707 241.531 66.2878 241.724 66.5496V65.7228H242.912V71.5105C242.912 72.0341 242.802 72.4992 242.581 72.9057C242.361 73.3192 242.04 73.643 241.62 73.8773C241.207 74.1115 240.711 74.2287 240.132 74.2287C239.36 74.2287 238.719 74.0461 238.21 73.6809C237.7 73.3226 237.41 72.8334 237.341 72.2133H238.509C238.599 72.5096 238.788 72.7473 239.078 72.9264C239.374 73.1125 239.725 73.2055 240.132 73.2055C240.607 73.2055 240.99 73.0608 241.279 72.7714C241.575 72.482 241.724 72.0617 241.724 71.5105V70.5597C241.524 70.8284 241.252 71.0557 240.907 71.2418C240.569 71.4209 240.184 71.5105 239.75 71.5105C239.253 71.5105 238.799 71.3865 238.385 71.1384C237.979 70.8835 237.655 70.5321 237.414 70.0842C237.179 69.6295 237.062 69.1162 237.062 68.5443C237.062 67.9724 237.179 67.466 237.414 67.025C237.655 66.5841 237.979 66.243 238.385 66.0018C238.799 65.7538 239.253 65.6298 239.75 65.6298ZM241.724 68.565C241.724 68.1722 241.641 67.8312 241.475 67.5418C241.317 67.2524 241.107 67.0319 240.845 66.8803C240.583 66.7287 240.301 66.653 239.998 66.653C239.694 66.653 239.412 66.7287 239.15 66.8803C238.888 67.025 238.675 67.2421 238.509 67.5314C238.351 67.8139 238.272 68.1516 238.272 68.5443C238.272 68.937 238.351 69.2815 238.509 69.5778C238.675 69.8741 238.888 70.1015 239.15 70.2599C239.419 70.4115 239.701 70.4873 239.998 70.4873C240.301 70.4873 240.583 70.4115 240.845 70.2599C241.107 70.1084 241.317 69.8879 241.475 69.5985C241.641 69.3022 241.724 68.9577 241.724 68.565ZM248.323 66.5496C248.495 66.2602 248.722 66.0363 249.005 65.8778C249.294 65.7125 249.635 65.6298 250.028 65.6298V66.8493H249.728C249.267 66.8493 248.915 66.9665 248.674 67.2007C248.44 67.435 248.323 67.8415 248.323 68.4203V71.4175H247.144V65.7228H248.323V66.5496ZM250.718 68.5443C250.718 67.9724 250.835 67.466 251.07 67.025C251.311 66.5841 251.635 66.243 252.041 66.0018C252.454 65.7538 252.909 65.6298 253.405 65.6298C253.853 65.6298 254.242 65.7193 254.573 65.8985C254.911 66.0707 255.179 66.2878 255.379 66.5496V65.7228H256.568V71.4175H255.379V70.57C255.179 70.8387 254.907 71.0626 254.563 71.2418C254.218 71.4209 253.826 71.5105 253.385 71.5105C252.895 71.5105 252.448 71.3865 252.041 71.1384C251.635 70.8835 251.311 70.5321 251.07 70.0842C250.835 69.6295 250.718 69.1162 250.718 68.5443ZM255.379 68.565C255.379 68.1722 255.297 67.8312 255.131 67.5418C254.973 67.2524 254.763 67.0319 254.501 66.8803C254.239 66.7287 253.956 66.653 253.653 66.653C253.35 66.653 253.068 66.7287 252.806 66.8803C252.544 67.025 252.33 67.2421 252.165 67.5314C252.007 67.8139 251.927 68.1516 251.927 68.5443C251.927 68.937 252.007 69.2815 252.165 69.5778C252.33 69.8741 252.544 70.1015 252.806 70.2599C253.075 70.4115 253.357 70.4873 253.653 70.4873C253.956 70.4873 254.239 70.4115 254.501 70.2599C254.763 70.1084 254.973 69.8879 255.131 69.5985C255.297 69.3022 255.379 68.9577 255.379 68.565ZM260.989 65.6298C261.436 65.6298 261.836 65.7228 262.187 65.9088C262.546 66.0949 262.825 66.3705 263.025 66.7356C263.224 67.1008 263.324 67.5418 263.324 68.0585V71.4175H262.156V68.2342C262.156 67.7244 262.029 67.3351 261.774 67.0664C261.519 66.7908 261.171 66.653 260.73 66.653C260.289 66.653 259.938 66.7908 259.676 67.0664C259.421 67.3351 259.294 67.7244 259.294 68.2342V71.4175H258.115V65.7228H259.294V66.3739C259.487 66.1396 259.731 65.9571 260.027 65.8261C260.331 65.6952 260.651 65.6298 260.989 65.6298ZM267.08 68.5753L269.705 71.4175H268.114L266.005 68.968V71.4175H264.827V63.7694H266.005V68.2136L268.072 65.7228H269.705L267.08 68.5753Z" fill="black"/>
<g filter="url(#filter3_d_130_2249)">
<path d="M175.393 100.689L165.579 90.8754C165.378 90.678 165.115 90.5569 164.835 90.5326C164.555 90.5084 164.275 90.5826 164.044 90.7424L151.956 99.1182C151.81 99.2189 151.688 99.3502 151.599 99.5032C151.509 99.6561 151.455 99.8268 151.439 100.003C151.422 100.18 151.445 100.358 151.506 100.524C151.566 100.691 151.662 100.842 151.787 100.967L163.475 112.655C163.63 112.81 163.824 112.921 164.036 112.975C164.249 113.028 164.472 113.023 164.682 112.96C164.892 112.897 165.08 112.777 165.228 112.615C165.375 112.453 165.475 112.254 165.518 112.039L167.077 104.291L174.777 102.732C174.992 102.689 175.191 102.589 175.354 102.442C175.516 102.294 175.635 102.106 175.699 101.896C175.762 101.686 175.767 101.463 175.713 101.25C175.659 101.038 175.549 100.844 175.393 100.689Z" fill="#FF4242"/>
<path d="M130.441 99.1182L118.353 90.7424C118.122 90.5826 117.842 90.5084 117.562 90.5326C117.282 90.5569 117.019 90.678 116.818 90.8754L106.955 100.689C106.8 100.844 106.689 101.038 106.636 101.25C106.582 101.463 106.587 101.686 106.65 101.896C106.713 102.106 106.833 102.294 106.995 102.442C107.157 102.589 107.357 102.689 107.572 102.732L115.32 104.291L116.879 112.039C116.922 112.254 117.022 112.453 117.169 112.615C117.317 112.777 117.505 112.897 117.715 112.96C117.925 113.023 118.148 113.028 118.361 112.975C118.573 112.921 118.767 112.81 118.922 112.655L130.61 100.967C130.735 100.842 130.831 100.691 130.891 100.524C130.952 100.358 130.975 100.18 130.958 100.003C130.942 99.8268 130.888 99.6561 130.798 99.5032C130.709 99.3502 130.587 99.2189 130.441 99.1182Z" fill="#FF4242"/>
<path d="M173.809 76.0212C173.809 72.9755 168.612 71.2834 168.285 69.833C167.959 68.3827 171.912 64.5513 170.582 61.856C169.252 59.1608 163.874 59.898 162.931 58.6894C161.988 57.4808 163.922 52.4045 161.553 50.507C159.184 48.6094 154.663 51.6431 153.261 50.9662C151.859 50.2894 151.424 44.9231 148.426 44.1979C145.428 43.4727 142.806 48.2226 141.174 48.2226C139.542 48.2226 136.81 43.5452 133.921 44.1979C131.032 44.8505 130.476 50.3136 129.086 50.9662C127.696 51.6189 123.164 48.6215 120.795 50.507C118.425 52.3924 120.372 57.4808 119.417 58.6894C118.462 59.898 113.071 59.1004 111.765 61.856C110.46 64.6117 114.412 68.2981 114.062 69.833C113.711 71.368 108.538 72.9634 108.538 76.0212C108.538 79.0791 113.736 80.7591 114.062 82.2094C114.388 83.6598 110.436 87.4912 111.765 90.1864C113.095 92.8817 118.474 92.1444 119.441 93.3531C120.408 94.5617 118.45 99.638 120.819 101.536C123.188 103.433 127.708 100.399 129.111 101.076C130.513 101.753 130.948 107.119 133.946 107.845C136.943 108.57 139.542 103.82 141.174 103.82C142.552 103.82 145.308 107.905 147.846 107.905C148.045 107.908 148.244 107.888 148.438 107.845C151.387 107.168 151.883 101.729 153.273 101.076C154.663 100.424 159.196 103.421 161.565 101.536C163.934 99.6501 161.988 94.5617 162.943 93.3531C163.898 92.1444 169.313 92.8938 170.618 90.1864C171.924 87.4791 167.971 83.7444 168.322 82.2094C168.672 80.6745 173.809 79.0791 173.809 76.0212Z" fill="url(#paint0_linear_130_2249)"/>
<path d="M141.174 98.985C153.857 98.985 164.14 88.7036 164.14 76.0209C164.14 63.3383 153.857 53.0569 141.174 53.0569C128.49 53.0569 118.208 63.3383 118.208 76.0209C118.208 88.7036 128.49 98.985 141.174 98.985Z" fill="url(#paint1_linear_130_2249)"/>
<path d="M153.431 70.9083L145.707 69.7843L142.262 62.7863C142.163 62.5819 142.009 62.4097 141.816 62.2891C141.624 62.1684 141.401 62.1045 141.174 62.1045C140.947 62.1045 140.725 62.1684 140.532 62.2891C140.34 62.4097 140.185 62.5819 140.086 62.7863L136.642 69.7843L128.918 70.9083C128.695 70.9407 128.486 71.0343 128.314 71.1788C128.142 71.3232 128.014 71.5128 127.944 71.7263C127.873 71.9396 127.864 72.1685 127.916 72.387C127.969 72.6054 128.081 72.8048 128.241 72.963L133.837 78.4381L132.508 86.1251C132.466 86.3494 132.49 86.5807 132.574 86.7925C132.659 87.0042 132.802 87.1876 132.986 87.3216C133.171 87.4556 133.39 87.5346 133.617 87.5496C133.845 87.5645 134.072 87.5148 134.272 87.4062L141.174 83.7803L148.076 87.4062C148.277 87.5148 148.504 87.5645 148.731 87.5496C148.959 87.5346 149.178 87.4556 149.362 87.3216C149.547 87.1876 149.69 87.0042 149.774 86.7925C149.859 86.5807 149.882 86.3494 149.841 86.1251L148.511 78.4381L154.108 72.9872C154.274 72.8301 154.393 72.6287 154.45 72.4067C154.507 72.1847 154.499 71.9511 154.428 71.7332C154.357 71.5154 154.226 71.322 154.049 71.1761C153.873 71.03 153.658 70.9372 153.431 70.9083Z" fill="#FF4242"/>
</g>
<path d="M31.4084 85.0662C31.9505 85.1673 32.3961 85.4383 32.7452 85.8793C33.0944 86.3203 33.2689 86.8256 33.2689 87.3953C33.2689 87.9098 33.1403 88.3646 32.8831 88.7597C32.635 89.1455 32.2721 89.4487 31.7943 89.6692C31.3166 89.8897 30.7515 90 30.0992 90H25.9509V80.3805H29.92C30.5723 80.3805 31.1328 80.4861 31.6014 80.6974C32.0791 80.9088 32.4375 81.2028 32.6763 81.5795C32.9244 81.9562 33.0484 82.3834 33.0484 82.8611C33.0484 83.4216 32.8968 83.8902 32.5936 84.2669C32.2996 84.6436 31.9046 84.91 31.4084 85.0662ZM27.8803 84.3496H29.6444C30.1038 84.3496 30.4575 84.2485 30.7056 84.0464C30.9536 83.835 31.0777 83.5364 31.0777 83.1506C31.0777 82.7647 30.9536 82.4661 30.7056 82.2548C30.4575 82.0434 30.1038 81.9378 29.6444 81.9378H27.8803V84.3496ZM29.8236 88.4289C30.2921 88.4289 30.655 88.3186 30.9123 88.0981C31.1787 87.8776 31.312 87.5653 31.312 87.161C31.312 86.7475 31.1741 86.426 30.8985 86.1963C30.6229 85.9574 30.2508 85.838 29.7822 85.838H27.8803V88.4289H29.8236ZM36.7361 83.5502C36.9842 83.146 37.3057 82.829 37.7008 82.5993C38.1051 82.3696 38.5644 82.2548 39.079 82.2548V84.2806H38.569C37.9626 84.2806 37.5033 84.4231 37.1909 84.7079C36.8877 84.9927 36.7361 85.4888 36.7361 86.1963V90H34.8067V82.365H36.7361V83.5502ZM43.7688 90.124C43.0338 90.124 42.3722 89.9632 41.7842 89.6417C41.1962 89.3109 40.7322 88.8469 40.3923 88.2497C40.0615 87.6525 39.8962 86.9635 39.8962 86.1825C39.8962 85.4015 40.0661 84.7125 40.4061 84.1153C40.7552 83.5181 41.2284 83.0587 41.8256 82.7371C42.4228 82.4064 43.0889 82.241 43.8239 82.241C44.5589 82.241 45.225 82.4064 45.8222 82.7371C46.4194 83.0587 46.888 83.5181 47.228 84.1153C47.5771 84.7125 47.7517 85.4015 47.7517 86.1825C47.7517 86.9635 47.5725 87.6525 47.2142 88.2497C46.865 88.8469 46.3873 89.3109 45.7809 89.6417C45.1837 89.9632 44.513 90.124 43.7688 90.124ZM43.7688 88.4427C44.1179 88.4427 44.4441 88.36 44.7473 88.1946C45.0597 88.02 45.3077 87.7628 45.4915 87.4228C45.6752 87.0829 45.7671 86.6695 45.7671 86.1825C45.7671 85.4567 45.5742 84.9008 45.1883 84.5149C44.8116 84.1199 44.3476 83.9223 43.7963 83.9223C43.2451 83.9223 42.7811 84.1199 42.4044 84.5149C42.0369 84.9008 41.8531 85.4567 41.8531 86.1825C41.8531 86.9083 42.0323 87.4688 42.3906 87.8639C42.7581 88.2497 43.2175 88.4427 43.7688 88.4427ZM53.3979 82.2548C54.3075 82.2548 55.0425 82.5442 55.6029 83.123C56.1634 83.6926 56.4436 84.492 56.4436 85.521V90H54.5142V85.7828C54.5142 85.1764 54.3626 84.7125 54.0594 84.3909C53.7562 84.0601 53.3428 83.8948 52.8191 83.8948C52.2862 83.8948 51.8635 84.0601 51.5512 84.3909C51.248 84.7125 51.0964 85.1764 51.0964 85.7828V90H49.167V82.365H51.0964V83.3159C51.3536 82.9852 51.6798 82.7279 52.0749 82.5442C52.4791 82.3512 52.9201 82.2548 53.3979 82.2548ZM60.0424 88.4151H63.4465V90H57.8512V88.4427L61.1863 83.9499H57.865V82.365H63.4051V83.9223L60.0424 88.4151ZM72.0379 86.0171C72.0379 86.2928 72.0195 86.5408 71.9828 86.7613H66.4012C66.4472 87.3126 66.6401 87.7444 66.9801 88.0568C67.32 88.3692 67.7381 88.5254 68.2342 88.5254C68.9508 88.5254 69.4607 88.2176 69.7639 87.602H71.845C71.6245 88.337 71.2018 88.9434 70.5771 89.4212C69.9523 89.8897 69.1851 90.124 68.2755 90.124C67.5405 90.124 66.879 89.9632 66.291 89.6417C65.7122 89.3109 65.2574 88.8469 64.9266 88.2497C64.605 87.6525 64.4443 86.9635 64.4443 86.1825C64.4443 85.3924 64.605 84.6987 64.9266 84.1015C65.2482 83.5043 65.6984 83.0449 66.2772 82.7233C66.856 82.4018 67.5221 82.241 68.2755 82.241C69.0014 82.241 69.6491 82.3972 70.2187 82.7095C70.7976 83.0219 71.2432 83.4675 71.5555 84.0464C71.8771 84.616 72.0379 85.2729 72.0379 86.0171ZM70.0396 85.4659C70.0304 84.9697 69.8512 84.5747 69.5021 84.2806C69.153 83.9775 68.7257 83.8259 68.2204 83.8259C67.7426 83.8259 67.3384 83.9729 67.0076 84.2669C66.6861 84.5517 66.4885 84.9514 66.415 85.4659H70.0396ZM76.2753 81.7311V79.9532H79.5967V90H77.6121V81.7311H76.2753Z" fill="black"/>
<path d="M199.966 84.7748C199.966 85.2893 199.842 85.7716 199.594 86.2218C199.355 86.672 198.973 87.0349 198.45 87.3106C197.935 87.5862 197.283 87.724 196.493 87.724H194.88V91.4175H192.951V81.7979H196.493C197.237 81.7979 197.871 81.9266 198.395 82.1838C198.918 82.4411 199.309 82.7948 199.566 83.245C199.833 83.6952 199.966 84.2051 199.966 84.7748ZM196.41 86.1667C196.943 86.1667 197.338 86.0473 197.595 85.8084C197.853 85.5603 197.981 85.2158 197.981 84.7748C197.981 83.8376 197.458 83.369 196.41 83.369H194.88V86.1667H196.41ZM203.265 81.2191V91.4175H201.336V81.2191H203.265ZM204.675 87.5724C204.675 86.8007 204.827 86.1162 205.13 85.519C205.442 84.9218 205.86 84.4624 206.384 84.1408C206.917 83.8192 207.51 83.6585 208.162 83.6585C208.732 83.6585 209.228 83.7733 209.65 84.003C210.082 84.2327 210.427 84.5221 210.684 84.8712V83.7825H212.627V91.4175H210.684V90.3012C210.436 90.6595 210.091 90.9581 209.65 91.197C209.218 91.4267 208.718 91.5415 208.148 91.5415C207.505 91.5415 206.917 91.3761 206.384 91.0454C205.86 90.7146 205.442 90.2506 205.13 89.6534C204.827 89.0471 204.675 88.3534 204.675 87.5724ZM210.684 87.6C210.684 87.1314 210.592 86.7317 210.408 86.401C210.225 86.061 209.976 85.8038 209.664 85.6292C209.352 85.4455 209.016 85.3536 208.658 85.3536C208.3 85.3536 207.969 85.4409 207.666 85.6154C207.363 85.79 207.115 86.0473 206.922 86.3872C206.738 86.718 206.646 87.113 206.646 87.5724C206.646 88.0318 206.738 88.4361 206.922 88.7852C207.115 89.1251 207.363 89.387 207.666 89.5707C207.978 89.7545 208.309 89.8464 208.658 89.8464C209.016 89.8464 209.352 89.7591 209.664 89.5845C209.976 89.4008 210.225 89.1435 210.408 88.8128C210.592 88.4728 210.684 88.0686 210.684 87.6ZM216.758 85.3674V89.0608C216.758 89.3181 216.818 89.5064 216.937 89.6259C217.066 89.7361 217.277 89.7913 217.571 89.7913H218.467V91.4175H217.254C215.628 91.4175 214.815 90.6273 214.815 89.0471V85.3674H213.905V83.7825H214.815V81.8944H216.758V83.7825H218.467V85.3674H216.758ZM227.159 83.7825L222.432 95.0283H220.378L222.032 91.2245L218.973 83.7825H221.136L223.107 89.116L225.105 83.7825H227.159ZM232.43 83.6722C233.339 83.6722 234.074 83.9616 234.635 84.5405C235.195 85.1101 235.476 85.9094 235.476 86.9385V91.4175H233.546V87.2003C233.546 86.5939 233.395 86.13 233.091 85.8084C232.788 85.4776 232.375 85.3122 231.851 85.3122C231.318 85.3122 230.896 85.4776 230.583 85.8084C230.28 86.13 230.128 86.5939 230.128 87.2003V91.4175H228.199V83.7825H230.128V84.7334C230.386 84.4027 230.712 84.1454 231.107 83.9617C231.511 83.7687 231.952 83.6722 232.43 83.6722ZM238.289 82.8729C237.949 82.8729 237.664 82.7672 237.434 82.5559C237.214 82.3354 237.104 82.0644 237.104 81.7428C237.104 81.4212 237.214 81.1548 237.434 80.9435C237.664 80.723 237.949 80.6127 238.289 80.6127C238.629 80.6127 238.909 80.723 239.13 80.9435C239.359 81.1548 239.474 81.4212 239.474 81.7428C239.474 82.0644 239.359 82.3354 239.13 82.5559C238.909 82.7672 238.629 82.8729 238.289 82.8729ZM239.24 83.7825V91.4175H237.31V83.7825H239.24ZM248.354 83.7825V91.4175H246.411V90.4528C246.163 90.7835 245.836 91.0454 245.432 91.2383C245.037 91.4221 244.605 91.514 244.137 91.514C243.539 91.514 243.011 91.3899 242.552 91.1418C242.092 90.8846 241.729 90.5125 241.463 90.0255C241.206 89.5294 241.077 88.9414 241.077 88.2615V83.7825H243.007V87.9859C243.007 88.5923 243.158 89.0608 243.461 89.3916C243.765 89.7132 244.178 89.8739 244.702 89.8739C245.235 89.8739 245.653 89.7132 245.956 89.3916C246.259 89.0608 246.411 88.5923 246.411 87.9859V83.7825H248.354ZM251.236 82.8729C250.896 82.8729 250.611 82.7672 250.382 82.5559C250.161 82.3354 250.051 82.0644 250.051 81.7428C250.051 81.4212 250.161 81.1548 250.382 80.9435C250.611 80.723 250.896 80.6127 251.236 80.6127C251.576 80.6127 251.856 80.723 252.077 80.9435C252.306 81.1548 252.421 81.4212 252.421 81.7428C252.421 82.0644 252.306 82.3354 252.077 82.5559C251.856 82.7672 251.576 82.8729 251.236 82.8729ZM252.187 83.7825V91.4175H250.258V83.7825H252.187ZM263.575 83.6722C264.512 83.6722 265.265 83.9616 265.835 84.5405C266.414 85.1101 266.703 85.9094 266.703 86.9385V91.4175H264.774V87.2003C264.774 86.6031 264.622 86.1483 264.319 85.8359C264.016 85.5144 263.602 85.3536 263.079 85.3536C262.555 85.3536 262.137 85.5144 261.825 85.8359C261.521 86.1483 261.37 86.6031 261.37 87.2003V91.4175H259.44V87.2003C259.44 86.6031 259.289 86.1483 258.986 85.8359C258.682 85.5144 258.269 85.3536 257.745 85.3536C257.212 85.3536 256.79 85.5144 256.477 85.8359C256.174 86.1483 256.023 86.6031 256.023 87.2003V91.4175H254.093V83.7825H256.023V84.7059C256.271 84.3843 256.588 84.1316 256.974 83.9479C257.369 83.7641 257.8 83.6722 258.269 83.6722C258.866 83.6722 259.399 83.8009 259.868 84.0581C260.336 84.3062 260.699 84.6645 260.956 85.1331C261.204 84.6921 261.563 84.3383 262.031 84.0719C262.509 83.8055 263.024 83.6722 263.575 83.6722Z" fill="black"/>
<path d="M122.83 31.0637C122.594 30.6293 122.253 30.3004 121.806 30.077C121.372 29.8412 120.856 29.7233 120.261 29.7233C119.231 29.7233 118.405 30.0646 117.785 30.7472C117.164 31.4175 116.854 32.3173 116.854 33.4467C116.854 34.6507 117.176 35.5939 117.822 36.2766C118.48 36.9468 119.379 37.2819 120.521 37.2819C121.303 37.2819 121.961 37.0833 122.495 36.6861C123.041 36.289 123.438 35.718 123.686 34.9734H119.646V32.6276H126.572V35.5877C126.336 36.3821 125.933 37.1205 125.362 37.8032C124.803 38.4858 124.09 39.0381 123.221 39.4601C122.352 39.8821 121.372 40.0931 120.279 40.0931C118.989 40.0931 117.834 39.8138 116.817 39.2553C115.811 38.6844 115.023 37.8963 114.452 36.8909C113.894 35.8856 113.614 34.7375 113.614 33.4467C113.614 32.1559 113.894 31.0079 114.452 30.0026C115.023 28.9848 115.811 28.1967 116.817 27.6382C117.822 27.0672 118.97 26.7818 120.261 26.7818C121.825 26.7818 123.14 27.1603 124.208 27.9174C125.287 28.6745 126.001 29.7233 126.349 31.0637H122.83ZM133.064 40.1489C132.046 40.1489 131.128 39.9317 130.309 39.4973C129.502 39.0629 128.863 38.4424 128.391 37.6356C127.932 36.8289 127.702 35.8856 127.702 34.8058C127.702 33.7384 127.938 32.8013 128.41 31.9946C128.881 31.1754 129.527 30.5487 130.346 30.1143C131.165 29.6799 132.084 29.4627 133.101 29.4627C134.119 29.4627 135.038 29.6799 135.857 30.1143C136.676 30.5487 137.321 31.1754 137.793 31.9946C138.265 32.8013 138.5 33.7384 138.5 34.8058C138.5 35.8732 138.258 36.8165 137.774 37.6356C137.303 38.4424 136.651 39.0629 135.819 39.4973C135 39.9317 134.082 40.1489 133.064 40.1489ZM133.064 37.3936C133.672 37.3936 134.187 37.1702 134.609 36.7234C135.044 36.2766 135.261 35.6374 135.261 34.8058C135.261 33.9742 135.05 33.335 134.628 32.8882C134.218 32.4414 133.71 32.218 133.101 32.218C132.481 32.218 131.966 32.4414 131.556 32.8882C131.147 33.3226 130.942 33.9618 130.942 34.8058C130.942 35.6374 131.14 36.2766 131.538 36.7234C131.947 37.1702 132.456 37.3936 133.064 37.3936ZM143.373 26.2233V40H140.189V26.2233H143.373ZM145.047 34.7872C145.047 33.7198 145.245 32.7827 145.643 31.976C146.052 31.1692 146.605 30.5487 147.3 30.1143C147.995 29.6799 148.77 29.4627 149.627 29.4627C150.309 29.4627 150.93 29.6054 151.488 29.8909C152.059 30.1763 152.506 30.5611 152.829 31.0451V26.2233H156.012V40H152.829V38.5106C152.531 39.0071 152.103 39.4042 151.544 39.7021C150.998 40 150.359 40.1489 149.627 40.1489C148.77 40.1489 147.995 39.9317 147.3 39.4973C146.605 39.0505 146.052 38.4237 145.643 37.617C145.245 36.7978 145.047 35.8546 145.047 34.7872ZM152.829 34.8058C152.829 34.0115 152.605 33.3847 152.159 32.9255C151.724 32.4662 151.191 32.2366 150.558 32.2366C149.925 32.2366 149.385 32.4662 148.938 32.9255C148.504 33.3723 148.286 33.9928 148.286 34.7872C148.286 35.5815 148.504 36.2145 148.938 36.6861C149.385 37.1454 149.925 37.375 150.558 37.375C151.191 37.375 151.724 37.1454 152.159 36.6861C152.605 36.2269 152.829 35.6001 152.829 34.8058ZM161.609 29.3696V26.4094H166.766V40H163.452V29.3696H161.609Z" fill="black"/>
<g filter="url(#filter4_d_130_2249)">
<path d="M257.633 145.341L249.839 137.547C249.68 137.39 249.471 137.294 249.248 137.275C249.026 137.255 248.803 137.314 248.62 137.441L239.021 144.093C238.905 144.173 238.808 144.277 238.737 144.399C238.666 144.52 238.622 144.656 238.609 144.796C238.597 144.936 238.615 145.077 238.663 145.209C238.71 145.342 238.787 145.462 238.886 145.561L248.169 154.843C248.291 154.967 248.445 155.054 248.614 155.097C248.783 155.14 248.96 155.136 249.127 155.085C249.293 155.035 249.443 154.94 249.56 154.811C249.677 154.683 249.757 154.524 249.791 154.354L251.029 148.201L257.144 146.963C257.315 146.929 257.473 146.849 257.602 146.732C257.731 146.615 257.825 146.465 257.876 146.299C257.926 146.132 257.93 145.955 257.887 145.786C257.845 145.617 257.757 145.463 257.633 145.341Z" fill="url(#paint2_linear_130_2249)"/>
<path d="M221.934 144.093L212.335 137.441C212.151 137.314 211.929 137.255 211.707 137.275C211.484 137.294 211.275 137.39 211.116 137.547L203.283 145.341C203.16 145.463 203.072 145.617 203.029 145.786C202.987 145.955 202.991 146.132 203.041 146.299C203.091 146.465 203.186 146.615 203.315 146.732C203.444 146.849 203.602 146.929 203.773 146.963L209.926 148.201L211.164 154.354C211.198 154.524 211.278 154.683 211.395 154.811C211.512 154.94 211.662 155.035 211.828 155.085C211.995 155.136 212.172 155.14 212.341 155.097C212.51 155.054 212.664 154.967 212.786 154.843L222.069 145.561C222.168 145.462 222.245 145.342 222.292 145.209C222.34 145.077 222.358 144.936 222.345 144.796C222.333 144.656 222.289 144.52 222.218 144.399C222.147 144.277 222.05 144.173 221.934 144.093Z" fill="url(#paint3_linear_130_2249)"/>
<path d="M256.375 125.75C256.375 123.331 252.248 121.987 251.989 120.836C251.729 119.684 254.868 116.641 253.813 114.501C252.757 112.36 248.485 112.946 247.736 111.986C246.988 111.026 248.523 106.995 246.642 105.488C244.761 103.981 241.17 106.39 240.057 105.852C238.943 105.315 238.598 101.053 236.217 100.477C233.837 99.9014 231.754 103.674 230.458 103.674C229.162 103.674 226.992 99.959 224.698 100.477C222.404 100.996 221.963 105.334 220.859 105.852C219.755 106.371 216.155 103.99 214.274 105.488C212.392 106.985 213.938 111.026 213.179 111.986C212.421 112.946 208.14 112.312 207.103 114.501C206.066 116.689 209.205 119.617 208.927 120.836C208.648 122.055 204.54 123.322 204.54 125.75C204.54 128.178 208.668 129.513 208.927 130.664C209.186 131.816 206.047 134.859 207.103 136.999C208.159 139.14 212.431 138.554 213.198 139.514C213.966 140.474 212.411 144.505 214.293 146.012C216.174 147.519 219.764 145.11 220.878 145.647C221.991 146.185 222.337 150.447 224.717 151.023C227.098 151.599 229.162 147.826 230.458 147.826C231.552 147.826 233.741 151.071 235.756 151.071C235.915 151.073 236.073 151.057 236.227 151.023C238.569 150.485 238.963 146.166 240.067 145.647C241.17 145.129 244.77 147.51 246.652 146.012C248.533 144.515 246.988 140.474 247.746 139.514C248.504 138.554 252.805 139.149 253.841 136.999C254.878 134.849 251.739 131.883 252.017 130.664C252.296 129.445 256.375 128.178 256.375 125.75Z" fill="#1000C6"/>
<path d="M230.458 143.987C240.531 143.987 248.697 135.822 248.697 125.75C248.697 115.678 240.531 107.513 230.458 107.513C220.385 107.513 212.22 115.678 212.22 125.75C212.22 135.822 220.385 143.987 230.458 143.987Z" fill="url(#paint4_linear_130_2249)"/>
<path d="M240.191 121.69L234.057 120.798L231.322 115.24C231.243 115.078 231.12 114.941 230.968 114.845C230.815 114.749 230.638 114.699 230.458 114.699C230.277 114.699 230.101 114.749 229.948 114.845C229.795 114.941 229.672 115.078 229.594 115.24L226.858 120.798L220.724 121.69C220.548 121.716 220.382 121.79 220.245 121.905C220.108 122.02 220.006 122.17 219.951 122.34C219.895 122.509 219.887 122.691 219.929 122.865C219.971 123.038 220.06 123.196 220.187 123.322L224.631 127.67L223.575 133.775C223.542 133.953 223.561 134.137 223.628 134.305C223.695 134.473 223.809 134.619 223.955 134.725C224.102 134.831 224.276 134.894 224.456 134.906C224.637 134.918 224.817 134.878 224.977 134.792L230.458 131.913L235.939 134.792C236.098 134.878 236.279 134.918 236.459 134.906C236.64 134.894 236.814 134.831 236.96 134.725C237.107 134.619 237.22 134.473 237.288 134.305C237.355 134.137 237.373 133.953 237.34 133.775L236.284 127.67L240.729 123.341C240.861 123.216 240.956 123.057 241.001 122.88C241.046 122.704 241.04 122.518 240.983 122.345C240.927 122.172 240.823 122.019 240.682 121.903C240.542 121.787 240.372 121.713 240.191 121.69Z" fill="#409CB5"/>
</g>
<g filter="url(#filter5_d_130_2249)">
<path d="M78.8107 142.247L71.1335 134.57C70.9767 134.416 70.7711 134.321 70.5518 134.302C70.3327 134.283 70.1137 134.341 69.9328 134.466L60.4782 141.018C60.364 141.096 60.2686 141.199 60.1987 141.319C60.1287 141.438 60.0859 141.572 60.0733 141.71C60.0606 141.848 60.0785 141.987 60.1256 142.117C60.1727 142.247 60.2478 142.366 60.3458 142.464L69.4884 151.606C69.6093 151.728 69.761 151.814 69.9272 151.856C70.0934 151.898 70.268 151.894 70.4321 151.844C70.5963 151.795 70.7439 151.702 70.8591 151.575C70.9743 151.448 71.0528 151.292 71.0863 151.124L72.3059 145.064L78.3285 143.844C78.4967 143.811 78.6526 143.732 78.7795 143.617C78.9065 143.502 78.9998 143.354 79.0493 143.19C79.0988 143.026 79.1027 142.851 79.0608 142.685C79.0187 142.519 78.9323 142.367 78.8107 142.247Z" fill="url(#paint5_linear_130_2249)"/>
<path d="M43.6492 141.018L34.1946 134.466C34.0137 134.341 33.7947 134.283 33.5755 134.302C33.3564 134.321 33.1507 134.416 32.9939 134.57L25.2789 142.247C25.1573 142.367 25.0709 142.519 25.0288 142.685C24.9868 142.851 24.9908 143.026 25.0403 143.19C25.0898 143.354 25.1831 143.502 25.3101 143.617C25.437 143.732 25.5929 143.811 25.7611 143.844L31.8215 145.064L33.0411 151.124C33.0746 151.292 33.1531 151.448 33.2683 151.575C33.3836 151.702 33.5312 151.795 33.6953 151.844C33.8594 151.894 34.034 151.898 34.2002 151.856C34.3664 151.814 34.5181 151.728 34.639 151.606L43.7816 142.464C43.8796 142.366 43.9547 142.247 44.0018 142.117C44.0489 141.987 44.0668 141.848 44.0541 141.71C44.0415 141.572 43.9987 141.438 43.9287 141.319C43.8588 141.199 43.7634 141.096 43.6492 141.018Z" fill="url(#paint6_linear_130_2249)"/>
<path d="M77.5735 122.951C77.5735 120.569 73.508 119.245 73.2527 118.111C72.9975 116.976 76.0891 113.979 75.0491 111.871C74.0091 109.763 69.8018 110.34 69.0644 109.394C68.3269 108.449 69.8396 104.478 67.9865 102.994C66.1334 101.51 62.5974 103.883 61.5007 103.353C60.4039 102.824 60.0635 98.6262 57.7188 98.0589C55.3741 97.4917 53.3224 101.207 52.046 101.207C50.7697 101.207 48.6329 97.5484 46.3733 98.0589C44.1136 98.5694 43.6787 102.843 42.5914 103.353C41.5041 103.864 37.9586 101.519 36.1055 102.994C34.2524 104.469 35.7746 108.449 35.0277 109.394C34.2808 110.34 30.064 109.716 29.0429 111.871C28.0218 114.027 31.1135 116.91 30.8393 118.111C30.5651 119.311 26.5186 120.559 26.5186 122.951C26.5186 125.343 30.584 126.657 30.8393 127.791C31.0946 128.926 28.0029 131.923 29.0429 134.031C30.0829 136.139 34.2903 135.563 35.0466 136.508C35.803 137.453 34.2713 141.424 36.1244 142.908C37.9776 144.392 41.5136 142.02 42.6103 142.549C43.7071 143.078 44.0474 147.276 46.3922 147.843C48.7369 148.41 50.7697 144.695 52.046 144.695C53.1239 144.695 55.2795 147.89 57.265 147.89C57.4207 147.893 57.5763 147.877 57.7283 147.843C60.0352 147.314 60.4228 143.059 61.5101 142.549C62.5974 142.038 66.1429 144.383 67.996 142.908C69.8491 141.433 68.3269 137.453 69.0738 136.508C69.8207 135.563 74.0564 136.149 75.0775 134.031C76.0986 131.913 73.0069 128.992 73.2811 127.791C73.5553 126.591 77.5735 125.343 77.5735 122.951Z" fill="url(#paint7_linear_130_2249)"/>
<path d="M52.0439 140.913C61.9649 140.913 70.0076 132.871 70.0076 122.951C70.0076 113.031 61.9649 104.989 52.0439 104.989C42.1228 104.989 34.0801 113.031 34.0801 122.951C34.0801 132.871 42.1228 140.913 52.0439 140.913Z" fill="url(#paint8_linear_130_2249)"/>
<path d="M61.6329 118.952L55.5914 118.073L52.8968 112.599C52.8194 112.439 52.6985 112.304 52.5481 112.21C52.3975 112.116 52.2235 112.066 52.0459 112.066C51.8683 112.066 51.6943 112.116 51.5438 112.21C51.3933 112.304 51.2724 112.439 51.195 112.599L48.5004 118.073L42.4589 118.952C42.285 118.977 42.1215 119.051 41.9869 119.164C41.8523 119.277 41.7518 119.425 41.6969 119.592C41.6419 119.759 41.6345 119.938 41.6756 120.109C41.7167 120.279 41.8045 120.435 41.9295 120.559L46.307 124.842L45.267 130.854C45.2347 131.03 45.2528 131.211 45.319 131.377C45.3853 131.542 45.4971 131.686 45.6414 131.79C45.7858 131.895 45.9568 131.957 46.1348 131.969C46.3127 131.98 46.4905 131.942 46.6473 131.857L52.0459 129.02L57.4445 131.857C57.6013 131.942 57.7791 131.98 57.9571 131.969C58.135 131.957 58.3061 131.895 58.4505 131.79C58.5948 131.686 58.7066 131.542 58.7729 131.377C58.8391 131.211 58.8571 131.03 58.8249 130.854L57.7849 124.842L62.1624 120.578C62.2928 120.455 62.3857 120.298 62.4302 120.124C62.4745 119.95 62.4686 119.768 62.4131 119.597C62.3576 119.427 62.2548 119.276 62.1166 119.161C61.9785 119.047 61.8108 118.975 61.6329 118.952Z" fill="#B2500D"/>
</g>
<defs>
<filter id="filter0_d_130_2249" x="0" y="49.4175" width="105" height="124" filterUnits="userSpaceOnUse" color-interpolation-filters="sRGB">
<feFlood flood-opacity="0" result="BackgroundImageFix"/>
<feColorMatrix in="SourceAlpha" type="matrix" values="0 0 0 0 0 0 0 0 0 0 0 0 0 0 0 0 0 0 127 0" result="hardAlpha"/>
<feMorphology radius="1" operator="erode" in="SourceAlpha" result="effect1_dropShadow_130_2249"/>
<feOffset dy="2"/>
<feGaussianBlur stdDeviation="4"/>
<feComposite in2="hardAlpha" operator="out"/>
<feColorMatrix type="matrix" values="0 0 0 0 0 0 0 0 0 0 0 0 0 0 0 0 0 0 0.25 0"/>
<feBlend mode="normal" in2="BackgroundImageFix" result="effect1_dropShadow_130_2249"/>
<feBlend mode="normal" in="SourceGraphic" in2="effect1_dropShadow_130_2249" result="shape"/>
</filter>
<filter id="filter1_d_130_2249" x="177" y="49.4175" width="105" height="124" filterUnits="userSpaceOnUse" color-interpolation-filters="sRGB">
<feFlood flood-opacity="0" result="BackgroundImageFix"/>
<feColorMatrix in="SourceAlpha" type="matrix" values="0 0 0 0 0 0 0 0 0 0 0 0 0 0 0 0 0 0 127 0" result="hardAlpha"/>
<feMorphology radius="1" operator="erode" in="SourceAlpha" result="effect1_dropShadow_130_2249"/>
<feOffset dy="2"/>
<feGaussianBlur stdDeviation="4"/>
<feComposite in2="hardAlpha" operator="out"/>
<feColorMatrix type="matrix" values="0 0 0 0 0 0 0 0 0 0 0 0 0 0 0 0 0 0 0.25 0"/>
<feBlend mode="normal" in2="BackgroundImageFix" result="effect1_dropShadow_130_2249"/>
<feBlend mode="normal" in="SourceGraphic" in2="effect1_dropShadow_130_2249" result="shape"/>
</filter>
<filter id="filter2_d_130_2249" x="85.6923" y="0.78022" width="109.615" height="129.451" filterUnits="userSpaceOnUse" color-interpolation-filters="sRGB">
<feFlood flood-opacity="0" result="BackgroundImageFix"/>
<feColorMatrix in="SourceAlpha" type="matrix" values="0 0 0 0 0 0 0 0 0 0 0 0 0 0 0 0 0 0 127 0" result="hardAlpha"/>
<feMorphology radius="1.04396" operator="erode" in="SourceAlpha" result="effect1_dropShadow_130_2249"/>
<feOffset dy="2.08791"/>
<feGaussianBlur stdDeviation="4.17582"/>
<feComposite in2="hardAlpha" operator="out"/>
<feColorMatrix type="matrix" values="0 0 0 0 0 0 0 0 0 0 0 0 0 0 0 0 0 0 0.25 0"/>
<feBlend mode="normal" in2="BackgroundImageFix" result="effect1_dropShadow_130_2249"/>
<feBlend mode="normal" in="SourceGraphic" in2="effect1_dropShadow_130_2249" result="shape"/>
</filter>
<filter id="filter3_d_130_2249" x="105.187" y="44.1226" width="71.9739" height="71.7114" filterUnits="userSpaceOnUse" color-interpolation-filters="sRGB">
<feFlood flood-opacity="0" result="BackgroundImageFix"/>
<feColorMatrix in="SourceAlpha" type="matrix" values="0 0 0 0 0 0 0 0 0 0 0 0 0 0 0 0 0 0 127 0" result="hardAlpha"/>
<feOffset dy="1.41125"/>
<feGaussianBlur stdDeviation="0.705625"/>
<feComposite in2="hardAlpha" operator="out"/>
<feColorMatrix type="matrix" values="0 0 0 0 0 0 0 0 0 0 0 0 0 0 0 0 0 0 0.25 0"/>
<feBlend mode="normal" in2="BackgroundImageFix" result="effect1_dropShadow_130_2249"/>
<feBlend mode="normal" in="SourceGraphic" in2="effect1_dropShadow_130_2249" result="shape"/>
</filter>
<filter id="filter4_d_130_2249" x="201.879" y="100.417" width="57.1575" height="56.9502" filterUnits="userSpaceOnUse" color-interpolation-filters="sRGB">
<feFlood flood-opacity="0" result="BackgroundImageFix"/>
<feColorMatrix in="SourceAlpha" type="matrix" values="0 0 0 0 0 0 0 0 0 0 0 0 0 0 0 0 0 0 127 0" result="hardAlpha"/>
<feOffset dy="1.12075"/>
<feGaussianBlur stdDeviation="0.560375"/>
<feComposite in2="hardAlpha" operator="out"/>
<feColorMatrix type="matrix" values="0 0 0 0 0 0 0 0 0 0 0 0 0 0 0 0 0 0 0.25 0"/>
<feBlend mode="normal" in2="BackgroundImageFix" result="effect1_dropShadow_130_2249"/>
<feBlend mode="normal" in="SourceGraphic" in2="effect1_dropShadow_130_2249" result="shape"/>
</filter>
<filter id="filter5_d_130_2249" x="23.8961" y="98" width="56.2976" height="56.0925" filterUnits="userSpaceOnUse" color-interpolation-filters="sRGB">
<feFlood flood-opacity="0" result="BackgroundImageFix"/>
<feColorMatrix in="SourceAlpha" type="matrix" values="0 0 0 0 0 0 0 0 0 0 0 0 0 0 0 0 0 0 127 0" result="hardAlpha"/>
<feOffset dy="1.10387"/>
<feGaussianBlur stdDeviation="0.551937"/>
<feComposite in2="hardAlpha" operator="out"/>
<feColorMatrix type="matrix" values="0 0 0 0 0 0 0 0 0 0 0 0 0 0 0 0 0 0 0.25 0"/>
<feBlend mode="normal" in2="BackgroundImageFix" result="effect1_dropShadow_130_2249"/>
<feBlend mode="normal" in="SourceGraphic" in2="effect1_dropShadow_130_2249" result="shape"/>
</filter>
<linearGradient id="paint0_linear_130_2249" x1="141.174" y1="44.1374" x2="141.174" y2="107.905" gradientUnits="userSpaceOnUse">
<stop stop-color="#CE7F20"/>
<stop offset="1" stop-color="#B2500D"/>
</linearGradient>
<linearGradient id="paint1_linear_130_2249" x1="141.174" y1="53.0569" x2="141.174" y2="98.985" gradientUnits="userSpaceOnUse">
<stop stop-color="#EBFF00"/>
<stop offset="1" stop-color="#EF8E2E"/>
</linearGradient>
<linearGradient id="paint2_linear_130_2249" x1="243.599" y1="140.388" x2="252.929" y2="150.573" gradientUnits="userSpaceOnUse">
<stop stop-color="#42BFFF"/>
<stop offset="1" stop-color="#1174AC"/>
</linearGradient>
<linearGradient id="paint3_linear_130_2249" x1="217.557" y1="139.726" x2="208.688" y2="150.131" gradientUnits="userSpaceOnUse">
<stop stop-color="#42BFFF"/>
<stop offset="1" stop-color="#1174AC"/>
</linearGradient>
<linearGradient id="paint4_linear_130_2249" x1="230.458" y1="107.513" x2="230.458" y2="143.987" gradientUnits="userSpaceOnUse">
<stop stop-color="#FFC033"/>
<stop offset="1" stop-color="#EF8E2E"/>
</linearGradient>
<linearGradient id="paint5_linear_130_2249" x1="64.988" y1="137.368" x2="74.1772" y2="147.4" gradientUnits="userSpaceOnUse">
<stop stop-color="#42BFFF"/>
<stop offset="1" stop-color="#1174AC"/>
</linearGradient>
<linearGradient id="paint6_linear_130_2249" x1="39.3379" y1="136.716" x2="30.6026" y2="146.965" gradientUnits="userSpaceOnUse">
<stop stop-color="#42BFFF"/>
<stop offset="1" stop-color="#1174AC"/>
</linearGradient>
<linearGradient id="paint7_linear_130_2249" x1="52.046" y1="98.0116" x2="52.046" y2="147.89" gradientUnits="userSpaceOnUse">
<stop stop-color="#CE7F20"/>
<stop offset="1" stop-color="#B2500D"/>
</linearGradient>
<linearGradient id="paint8_linear_130_2249" x1="52.0439" y1="104.989" x2="52.0439" y2="140.913" gradientUnits="userSpaceOnUse">
<stop stop-color="#FFC033"/>
<stop offset="1" stop-color="#EF8E2E"/>
</linearGradient>
</defs>
</svg>
