<svg width="127" height="127" viewBox="0 0 127 127" fill="none" xmlns="http://www.w3.org/2000/svg">
<mask id="mask0_35_1193" style="mask-type:luminance" maskUnits="userSpaceOnUse" x="0" y="0" width="127" height="127">
<path d="M127 0H0V127H127V0Z" fill="white"/>
</mask>
<g mask="url(#mask0_35_1193)">
<path d="M114.102 55.5699C114.102 83.5166 91.4467 106.172 63.5 106.172C35.5533 106.172 12.8979 83.5166 12.8979 55.5699C12.8979 27.6232 35.5533 4.96814 63.5 4.96814C91.4467 4.96814 114.102 27.6232 114.102 55.5699Z" fill="#F5F5F5"/>
<path d="M114.102 55.5699C114.102 83.5166 91.4467 106.172 63.5 106.172C35.5533 106.172 12.8979 83.5166 12.8979 55.5699C12.8979 27.6232 35.5533 4.96814 63.5 4.96814C91.4467 4.96814 114.102 27.6232 114.102 55.5699Z" fill="#F5F5F5"/>
<path d="M47.4326 28.2221C47.2664 28.2439 47.0134 28.0904 46.6738 27.7617C46.3749 27.5058 46.1719 27.156 46.0981 26.7695C46.0539 26.4369 46.1792 25.0381 46.4739 22.5733C46.2768 22.5235 46.0979 22.4188 45.9579 22.2714C45.8048 22.1189 45.7076 21.9192 45.6819 21.7046C45.658 21.5248 45.9919 21.2762 46.6835 20.9588C47.1317 17.2043 47.298 14.8904 47.1825 14.0169C47.1458 13.8505 47.1557 13.6771 47.2111 13.5159C47.2513 13.4587 47.3048 13.412 47.3669 13.3799C47.4291 13.3478 47.4981 13.3311 47.568 13.3313C47.755 13.3065 48.0329 13.4883 48.4017 13.8768C48.7651 14.2545 48.9962 14.7399 49.0603 15.2601C49.1309 15.7937 49.0037 17.4429 48.6785 20.2079C50.4061 19.6064 52.1733 19.1252 53.9674 18.7678C54.2928 15.7914 54.4014 13.8942 54.2933 13.0761C54.2382 12.6604 54.3494 12.4341 54.6269 12.3974C54.8621 12.3662 55.1676 12.5443 55.5435 12.9317C55.8963 13.2742 56.1268 13.7233 56.1993 14.2097C56.2608 14.6742 56.1355 16.1259 55.8235 18.5646C56.4736 18.5775 56.8177 18.726 56.8556 19.0101C56.8931 19.2941 56.494 19.5831 55.6585 19.877C55.4311 21.5714 55.2796 22.7445 55.2041 23.3963C55.1277 24.0482 55.0659 24.5676 55.0186 24.9545C54.9712 25.3417 54.9168 25.7298 54.8554 26.1186C54.7584 26.8791 54.6337 27.2695 54.4813 27.2897C54.2868 27.3152 54.04 27.182 53.7409 26.8901C53.4633 26.6401 53.2803 26.302 53.2227 25.9328C53.1768 25.5863 53.3571 23.75 53.7635 20.424C51.7761 20.9692 49.9954 21.5291 48.4213 22.1037C48.3226 22.8506 48.2312 23.5715 48.1472 24.2665C48.0626 24.962 47.9966 25.5031 47.9493 25.8899C47.9019 26.2771 47.8475 26.6651 47.786 27.0538C47.6891 27.8145 47.5712 28.204 47.4326 28.2221Z" fill="#E5E5E5"/>
<path d="M61.3372 26.3399C61.171 26.362 60.9307 26.2246 60.6161 25.9279C60.3476 25.7091 60.1619 25.4052 60.0898 25.0664C60.0528 24.7894 60.2089 22.7976 60.5581 19.0912C60.9063 15.3851 61.0309 13.1015 60.9316 12.2402C60.8947 12.0737 60.9047 11.9002 60.9604 11.7391C61.0108 11.6411 61.1365 11.5786 61.3375 11.5516C61.5381 11.5253 61.83 11.7054 62.2131 12.0918C62.5779 12.4439 62.8142 12.9079 62.8845 13.41C62.9495 13.9021 62.7517 16.2449 62.2909 20.4384C62.2436 20.8253 62.183 21.3798 62.1091 22.1018C62.0357 22.8238 61.9751 23.3784 61.9273 23.7654C61.8797 24.1526 61.8299 24.5753 61.778 25.0334C61.6505 25.8825 61.5036 26.318 61.3372 26.3399Z" fill="#E5E5E5"/>
<path d="M75.1297 22.3363C75.1912 22.2048 75.2814 22.0889 75.3937 21.9971C75.5061 21.9053 75.6376 21.84 75.7786 21.8059C76.0143 21.7747 76.343 22.0732 76.7648 22.7016C77.1863 23.3299 77.4191 23.8105 77.4633 24.1433C77.4614 24.2112 77.446 24.278 77.4178 24.3398C77.3896 24.4016 77.3494 24.4572 77.2994 24.5032C77.2097 24.626 77.0776 24.7112 76.9288 24.7423C76.582 24.7882 76.165 24.6213 75.6777 24.2415C75.1903 23.8617 74.9277 23.5299 74.8901 23.2458C74.8618 22.924 74.9465 22.6024 75.1297 22.3363ZM75.9193 7.67619C76.1824 7.64146 76.5648 7.76011 77.0665 8.03213C77.568 8.30423 77.8315 8.53732 77.857 8.73138C78.013 9.90984 77.9857 12.022 77.7751 15.0677C77.5646 18.1142 77.2791 19.6612 76.9189 19.7087C76.795 19.7181 76.6705 19.6995 76.5547 19.6545C76.4389 19.6094 76.3346 19.5389 76.2497 19.4482C76.0427 19.2764 75.9055 19.0351 75.8637 18.7693C75.85 18.2581 75.8707 17.7464 75.9255 17.2379C75.9914 16.298 76.0188 14.9863 76.0076 13.3026C75.9962 11.6165 75.8794 9.93266 75.6578 8.26108C75.6102 7.90067 75.6973 7.70571 75.9193 7.67619Z" fill="#E5E5E5"/>
<path d="M91.0211 53.3894C91.1261 55.7495 90.9781 58.114 90.5796 60.4426C90.2038 62.7809 89.5895 65.0746 88.7463 67.2877C88.3237 68.3947 87.836 69.4756 87.2858 70.525C86.7397 71.5766 86.121 72.589 85.4341 73.5546C84.0788 75.4955 82.4424 77.224 80.5786 78.6835C81.4503 77.8953 82.2717 77.0534 83.0382 76.1626L83.3292 75.8334L83.6043 75.4906L84.1517 74.8038C84.4923 74.3273 84.8502 73.8639 85.1613 73.3678C85.4907 72.8844 85.7854 72.3791 86.0895 71.8798C86.24 71.6295 86.374 71.3691 86.5169 71.1143L86.7282 70.7304L86.9241 70.3382C87.4583 69.298 87.9328 68.2281 88.3452 67.1339C88.7694 66.0433 89.1371 64.9314 89.4468 63.8029C89.7668 62.677 90.0257 61.534 90.2559 60.3846C90.4816 59.2344 90.6569 58.0749 90.7818 56.9062C90.9211 55.7388 91.001 54.565 91.0211 53.3894Z" fill="#E5E5E5"/>
<path d="M96.2284 62.2847C95.8924 64.6231 95.307 66.9188 94.4821 69.1325C93.6778 71.3601 92.6474 73.4994 91.4071 75.517C90.786 76.526 90.1057 77.4974 89.3699 78.4261C88.6375 79.3578 87.8412 80.2373 86.9866 81.0583C85.2939 82.7131 83.3645 84.1069 81.2617 85.194C82.2648 84.5818 83.2286 83.9075 84.1475 83.1749L84.4945 82.9055L84.8286 82.6198L85.4941 82.0468C85.9176 81.6422 86.3554 81.2536 86.7535 80.8239C87.167 80.4102 87.5507 79.9684 87.9421 79.5346C88.1366 79.3166 88.3167 79.0856 88.5047 78.8621L88.7837 78.524L89.0494 78.1753C89.7676 77.2525 90.4327 76.2895 91.0417 75.2913C91.6613 74.2986 92.2294 73.2747 92.7438 72.2237C93.2677 71.1767 93.735 70.1019 94.1748 69.0154C94.6109 67.9272 94.9989 66.8205 95.3389 65.6953C95.6929 64.5742 95.9898 63.4359 96.2284 62.2847Z" fill="#E5E5E5"/>
<path d="M36.6896 68.9351C35.6851 66.7969 34.9125 64.5572 34.3852 62.2544C33.8329 59.9514 33.5181 57.5978 33.4456 55.2305C33.4101 54.0461 33.4447 52.8607 33.5491 51.6805C33.6487 50.4997 33.8306 49.3273 34.0935 48.1718C34.5982 45.859 35.4442 43.6342 36.6035 41.5703C36.1019 42.6331 35.6673 43.7262 35.3023 44.8433L35.1601 45.259L35.0383 45.6812L34.797 46.5255C34.6658 47.0965 34.5135 47.6616 34.417 48.2393C34.2989 48.8123 34.2213 49.3922 34.1322 49.9699C34.0898 50.2589 34.0662 50.5506 34.0323 50.8408L33.9849 51.2766L33.9546 51.7139C33.8617 52.8796 33.835 54.0496 33.8747 55.2183C33.9027 56.3883 33.9908 57.5559 34.1387 58.7168C34.2763 59.8794 34.4768 61.0338 34.7064 62.1833C34.9401 63.3322 35.2268 64.4707 35.5582 65.5969C35.8787 66.728 36.2563 67.8422 36.6896 68.9351Z" fill="#E5E5E5"/>
<path d="M28.4627 62.7259C27.8736 60.4382 27.5313 58.0939 27.4415 55.7332C27.3276 53.3676 27.4562 50.9966 27.8253 48.6572C28.0108 47.4869 28.2654 46.3286 28.5875 45.1883C28.9052 44.0466 29.3022 42.9285 29.7754 41.8421C30.7015 39.6636 31.9466 37.635 33.4698 35.823C32.7792 36.7738 32.1489 37.767 31.5824 38.7966L31.3656 39.1786L31.1669 39.5707L30.7728 40.3556C30.5376 40.8921 30.2829 41.4189 30.0805 41.9686C29.858 42.5098 29.6737 43.065 29.479 43.6159C29.3832 43.892 29.3058 44.1742 29.2183 44.453L29.0908 44.8725L28.9797 45.2964C28.6714 46.4245 28.4276 47.5691 28.2494 48.7249C28.0591 49.8795 27.9284 51.0432 27.8577 52.2112C27.7764 53.379 27.7585 54.5508 27.7704 55.7231C27.7863 56.8951 27.856 58.0671 27.9723 59.2351C28.0766 60.4063 28.2403 61.5714 28.4627 62.7259Z" fill="#E5E5E5"/>
</g>
<mask id="mask1_35_1193" style="mask-type:luminance" maskUnits="userSpaceOnUse" x="12" y="4" width="103" height="103">
<path d="M12.8979 55.57C12.8979 83.5166 35.5533 106.172 63.5 106.172C91.4467 106.172 114.102 83.5166 114.102 55.57C114.102 27.6233 91.4467 4.96814 63.5 4.96814C35.5533 4.96814 12.8979 27.6233 12.8979 55.57Z" fill="white"/>
</mask>
<g mask="url(#mask1_35_1193)">
<path d="M91.8597 110.222L65.3331 74.6051C65.3331 74.6051 70.4017 70.6681 70.0923 63.0876L76.106 51.9778C76.106 51.9778 74.424 48.8291 66.8494 57.3634L72.5728 33.9138C72.5728 33.9138 70.1201 33.5807 68.6522 38.0649L62.4761 53.0727L66.5718 29.8198C66.5718 29.8198 64.7556 29.7813 64.0085 31.4492C63.2616 33.1173 57.3715 51.5725 57.3715 51.5725L59.9485 30.6894C59.9485 30.6894 57.4219 31.283 56.4666 34.484C55.5112 37.6848 52.6264 50.8757 52.6264 50.8757L51.3755 38.6321C51.3755 38.6321 50.0836 37.4157 49.0138 44.14C47.9442 50.8641 47.7927 54.2782 46.7978 57.0055C46.5904 57.5735 46.3632 58.1886 46.1332 58.8065C44.6564 62.7452 44.5949 67.0748 45.9594 71.0538C46.9429 73.9645 48.4068 76.69 50.2903 79.1174C55.819 86.1135 74.6304 115.173 74.6304 115.173" fill="#87E5FF"/>
<path d="M65.2807 74.5352C65.2807 74.5352 63.7748 75.3867 63.3623 75.567L67.0607 76.9251L65.2807 74.5352Z" fill="#E5E5E5"/>
<path d="M56.7876 65.0728C56.8638 64.5102 57.0134 63.96 57.2326 63.4362C57.3416 63.1735 57.4659 62.9174 57.6049 62.6692C57.6746 62.5452 57.7399 62.4182 57.8133 62.2964L58.0509 61.9412C58.7078 61.0059 59.5257 60.1949 60.4666 59.5461L61.1904 59.0907C61.4353 58.9456 61.6979 58.833 61.9509 58.7027L62.3334 58.5137C62.4602 58.4482 62.5978 58.4093 62.7296 58.356C62.995 58.2548 63.2621 58.1573 63.5293 58.061C63.6617 58.0101 63.7976 57.9688 63.9361 57.9375L64.3481 57.8308L65.1713 57.6188C65.7317 57.532 66.2905 57.4417 66.8491 57.3635L65.1949 57.7212L64.3853 57.9616L63.981 58.0811C63.8451 58.1167 63.712 58.1623 63.5828 58.2176C63.0556 58.4088 62.5396 58.6294 62.037 58.8784C61.7897 59.0096 61.5322 59.1229 61.2936 59.2683L60.5884 59.7229C59.6621 60.3522 58.8495 61.1344 58.1853 62.036C57.5113 62.9389 57.0351 63.9736 56.7876 65.0728Z" fill="#E5E5E5"/>
<path d="M75.9138 52.3326C75.9138 52.3326 74.6626 52.033 73.852 53.6602C73.7283 53.9013 73.6785 54.1737 73.7089 54.443C73.7084 54.5348 73.7293 54.6254 73.7699 54.7077C73.8106 54.79 73.8699 54.8616 73.9432 54.917C74.0165 54.9723 74.1016 55.0097 74.1919 55.0263C74.2822 55.0429 74.3751 55.0382 74.4632 55.0125L75.9138 52.3326Z" fill="#E5E5E5"/>
<path d="M54.832 52.9032C55.2076 52.9744 55.5811 53.0493 55.9579 53.1096C56.3327 53.1775 56.7084 53.2395 57.085 53.2956C57.8376 53.4087 58.5909 53.5149 59.3482 53.5846C60.1038 53.6687 60.8625 53.7084 61.6223 53.7342C62.0018 53.7369 62.3823 53.7485 62.7621 53.728C63.1438 53.7314 63.5214 53.686 63.9041 53.6682C63.1513 53.8098 62.3878 53.8872 61.6218 53.8994C60.8555 53.9039 60.0895 53.87 59.3266 53.7979C58.5661 53.7098 57.8071 53.6062 57.0565 53.4576C56.3054 53.3139 55.5627 53.1289 54.832 52.9032Z" fill="#E5E5E5"/>
<path d="M50.9507 79.9745C50.9507 79.9745 54.9095 80.8908 67.0608 76.9253L68.7939 79.252C68.7939 79.252 56.3993 84.1864 52.6448 82.2858L50.9507 79.9745Z" fill="#E5E5E5"/>
<path d="M53.2731 81.8357C53.8952 81.8357 53.8962 80.8688 53.2731 80.8688C52.651 80.8688 52.65 81.8357 53.2731 81.8357Z" fill="#3A6864"/>
<path d="M55.3239 81.6809C55.946 81.6809 55.9472 80.714 55.3239 80.714C54.7018 80.714 54.7008 81.6809 55.3239 81.6809Z" fill="#3A6864"/>
<path d="M57.6442 81.294C58.2663 81.294 58.2673 80.3271 57.6442 80.3271C57.0221 80.3271 57.0211 81.294 57.6442 81.294Z" fill="#3A6864"/>
<path d="M60.0808 80.7913C60.7029 80.7913 60.7039 79.8245 60.0808 79.8245C59.4587 79.8245 59.4575 80.7913 60.0808 80.7913Z" fill="#3A6864"/>
</g>
<mask id="mask2_35_1193" style="mask-type:luminance" maskUnits="userSpaceOnUse" x="0" y="0" width="127" height="127">
<path d="M127 0H0V127H127V0Z" fill="white"/>
</mask>
<g mask="url(#mask2_35_1193)">
<path d="M63.4998 107.412C34.9138 107.412 11.6577 84.1557 11.6577 55.5698C11.6577 26.9842 34.9138 3.72778 63.4998 3.72778C92.0857 3.72778 115.342 26.9842 115.342 55.5698C115.342 84.1557 92.0857 107.412 63.4998 107.412ZM63.4998 6.20825C36.2816 6.20825 14.1382 28.3516 14.1382 55.5698C14.1382 82.788 36.2816 104.932 63.4998 104.932C90.7179 104.932 112.861 82.788 112.861 55.5698C112.861 28.3516 90.7179 6.20825 63.4998 6.20825Z" fill="#87E5FF"/>
</g>
</svg>
