<svg width="16" height="9" viewBox="0 0 16 9" fill="none" xmlns="http://www.w3.org/2000/svg">
<path d="M15.8365 4.03985C15.7504 4.3668 16.2525 6.18797 13.6485 7.71574C10.7638 9.42809 6.05411 9.42809 3.14982 7.71574C0.441299 6.12996 1.02121 4.19819 0.971563 4C0.971563 5.12472 1.70745 6.25967 3.16942 7.1156C6.07373 8.81775 10.7834 8.81775 13.6779 7.1156C15.1105 6.26935 15.8267 5.15434 15.8365 4.03985Z" fill="#CC8B4F"/>
<path d="M13.6434 1.17235C16.5552 2.73217 16.5706 5.26693 13.6714 6.83016C10.7787 8.38992 6.06241 8.38998 3.1506 6.83016C0.232551 5.26699 0.217205 2.73223 3.10991 1.17247C6.00908 -0.390774 10.7254 -0.390833 13.6434 1.17235Z" fill="#E5AE70"/>
<path d="M15.5617 5.74971C15.5262 5.83207 15.4847 5.91765 15.4373 6C14.6116 5.40953 12.4828 4.26593 11.8924 3.98402C10.4605 3.25166 9.37137 3.51558 6.90527 0.176137C7.07112 0.146529 7.23992 0.116951 7.40875 0.0971595C10.304 3.31586 10.7647 2.79067 12.3159 3.62827C13.2431 4.12638 14.7187 5.01587 15.5617 5.74971ZM15.8223 4.76795C15.541 4.60328 15.2567 4.44194 14.9664 4.28383C14.389 3.97742 13.8263 3.64478 13.2369 3.36476C12.6831 3.08152 11.9694 2.88385 11.3416 2.55768C10.2966 1.92466 9.42299 1.17984 8.65553 0.12014C8.62593 0.0807454 8.59929 0.0443815 8.57261 0.00482957C8.7829 -0.00160986 8.99611 -0.00160986 9.20933 0.00482957C9.55581 0.403348 9.93487 0.788925 10.3643 1.15449C12.118 2.6258 12.4719 2.36245 13.6634 3.01239C14.2675 3.33518 14.8095 3.6646 15.3544 4.00715C15.4166 4.04658 15.4818 4.08951 15.5439 4.12894C15.6387 4.1915 15.7335 4.25084 15.8282 4.32C15.8401 4.46833 15.8401 4.61982 15.8223 4.76795ZM15.5291 3.18029C15.2626 3.0354 14.9961 2.8937 14.7236 2.76195C13.7885 2.28366 12.3783 2.13593 10.6427 0.149875C10.9862 0.205872 11.3238 0.281599 11.6526 0.377148C11.7177 0.436334 11.7828 0.495678 11.8509 0.551676C12.1856 0.834916 12.541 1.12153 12.929 1.37198C13.0504 1.44773 13.1748 1.52346 13.3021 1.59265C13.7819 1.85288 14.3919 2.03398 14.9546 2.31065C15.1975 2.58742 15.387 2.88067 15.5291 3.18029Z" fill="#D89C60"/>
<path d="M14.8442 6.2282C14.7667 6.29295 14.6828 6.35508 14.5956 6.41721C13.3577 5.7279 11.9023 5.88593 10.3606 4.98664C8.92614 4.21838 8.8941 3.41335 7.98808 2.95804C7.83636 2.88185 7.66527 2.81133 7.4716 2.74644C6.76469 2.51225 5.88021 2.26689 5.22496 1.93679C4.74807 1.71292 4.27972 1.46491 3.73685 1.1354C3.85307 1.08457 3.9725 1.04229 4.09518 1C4.1468 1.02536 4.19846 1.05361 4.25009 1.07908C7.46742 2.7034 8.31507 2.01176 9.6246 3.60142C10.7565 5.21351 13.3102 5.55505 14.1696 5.88393C14.4109 5.97523 14.6394 6.09379 14.8442 6.2282ZM10.2283 7.89558C10.0669 7.91529 9.90869 7.93235 9.74728 7.94352H9.74406C8.38897 7.05099 8.93505 6.77327 7.1133 6.01368C4.04902 4.66831 3.23025 4.51644 2.01637 2.78032C1.92277 2.6533 1.80009 2.53207 1.65806 2.41635C1.7452 2.32612 1.84206 2.24136 1.94533 2.1539C2.19388 2.30625 2.41016 2.47559 2.578 2.65619C3.08676 3.17596 3.22496 3.65828 4.84727 4.47883C5.50168 4.80468 5.7192 4.87971 7.61683 5.7259C7.74275 5.78514 7.86862 5.84435 7.9913 5.90651C9.56218 6.70903 8.9619 6.96161 10.2283 7.89558ZM8.50453 8C8.2786 8 8.05585 7.99713 7.82992 7.98581C6.95094 7.07795 5.78066 6.94138 3.6465 5.86695C1.38759 4.72338 1.67121 4.17161 0.951172 3.52233C0.986679 3.3982 1.03831 3.27697 1.10609 3.1556C1.36757 3.31636 1.59674 3.49132 1.77105 3.68037C2.18175 4.09358 2.29378 4.4061 2.97508 4.87671C3.86043 5.50698 5.15156 6.0119 6.8131 6.75001C7.62756 7.14335 8.02347 7.33732 8.45294 7.92378C8.46902 7.94917 8.48514 7.97467 8.50453 8Z" fill="#D89C60"/>
<path d="M11.8672 7.86888C11.7337 7.91681 11.5971 7.96159 11.4574 8C11.4574 8 11.4574 8 11.4544 8C8.45477 6.10941 9.40102 5.40911 7.33488 4.60549C5.67639 3.91002 4.40447 3.82613 3.5614 2.17316C3.37924 1.83434 3.20015 1.50189 2.93604 1.20148C3.0271 1.14077 3.12121 1.07991 3.21835 1.01936C3.23047 1.0128 3.23959 1.00655 3.25174 1C3.61603 1.32929 3.868 1.70325 4.09872 2.0485C5.12418 3.51313 5.49952 3.3299 7.75076 4.22192C8.28837 4.4389 8.59304 4.62053 8.85882 4.81324C9.65443 5.39492 9.81592 6.36397 11.8672 7.86888Z" fill="#D89C60"/>
<path d="M8.82743 1.22086C8.82743 1.22086 8.93321 1.26311 8.86973 1.4216C8.80628 1.58003 8.61059 1.71732 8.52069 1.71732C8.004 1.71732 6.30977 1.91795 5.79718 2.36167C5.32123 2.77364 4.90871 2.69975 4.62314 2.86873C4.33755 3.03772 4.07315 3.08002 4.03614 2.77364C3.99912 2.46731 3.84046 1.65398 3.99382 1.4004C4.14718 1.14692 4.07315 1.13632 4.32171 1.12577C5.06954 1.09402 7.46376 0.969653 7.72218 1.00689C7.96014 1.04133 8.82743 1.22086 8.82743 1.22086Z" fill="#E02426"/>
<path d="M3.94439 3.64998C3.91546 3.62252 3.92877 3.55422 3.95742 3.52622C3.98608 3.4983 4.02369 3.49673 4.05886 3.49567C4.69742 3.47626 5.33264 3.27015 5.90975 2.89508C7.02416 2.17078 6.97128 0.653899 7.48086 1.07151C7.86205 1.3839 7.86569 1.36699 7.88687 1.46568C8.01051 2.04136 7.04004 3.11674 6.63705 3.37041C5.97458 3.78735 5.59711 4.04598 5.02323 3.99319C4.44932 3.9404 4.23897 3.92952 3.94439 3.64998Z" fill="#73AE43"/>
<path d="M13.847 3C13.8009 3.5024 14.0726 4.90895 13.1761 6.23009C12.8599 6.70607 12.3744 7.14889 11.7003 7.47008C9.72274 8.41768 7.64693 7.93169 5.5717 7.27641C5.01605 7.10259 3.93179 6.78118 3.92822 6.1831L3.93163 4.95898C3.93523 5.55668 5.0206 5.87881 5.57511 6.05226C7.65606 6.70939 9.72861 7.19238 11.7038 6.24596C12.874 5.68833 13.4971 4.80266 13.7766 3.51962C13.8157 3.34743 13.8465 3.17298 13.847 3Z" fill="#CF2027"/>
<path d="M13.0164 1.40024C13.4494 1.63413 13.7412 1.94842 13.8239 2.27822C13.8816 2.51746 13.8411 2.76419 13.7813 3.00605C13.5017 4.18554 12.8798 4.99926 11.7067 5.51278C9.72754 6.38402 7.64998 5.9372 5.57306 5.33468C5.01717 5.17497 3.93177 4.87928 3.92823 4.32947C3.925 3.70653 5.18301 3.50132 5.92835 3.51767C6.31364 3.52265 6.71757 3.56853 7.07874 3.49472C7.72136 3.36487 8.02887 2.94747 8.3509 2.65492C8.54257 2.4843 8.76695 2.32149 8.90669 2.13826C9.11643 1.87611 9.1475 1.59371 9.52661 1.37736C10.3434 0.914791 11.9553 0.827022 13.0164 1.40024Z" fill="#E02426"/>
<path d="M6.10878 5.24634C5.23469 4.90903 4.43054 4.51827 5.28352 4.10605C6.49542 3.50723 7.24619 4.64865 8.49578 2.9923C8.54472 2.92722 8.59243 2.86381 8.64043 2.80522C9.54511 1.7522 9.25797 1.63983 9.60164 1.37648C10.5811 0.632631 12.6314 1.03937 12.8435 2.17194C12.8806 2.3778 12.8457 2.62293 12.8064 2.83507C12.6985 3.44486 12.5542 3.8908 12.3378 4.28433C12.0728 4.77603 11.6756 5.18594 11.187 5.47296C9.55505 6.4363 7.80873 5.90787 6.10878 5.24634Z" fill="#EE4541"/>
<g opacity="0.54">
<path d="M11.7026 4.21522L11.6843 4.21762C11.4954 4.24419 11.3275 4.30653 11.195 4.39348C10.4535 4.88118 9.16155 4.7096 8.91508 4.14013C8.6695 3.57458 9.4282 3.38989 9.83175 2.86606C10.0868 2.5354 10.2932 2.0052 10.9621 1.95114C13.3419 1.75951 13.3004 3.98492 11.7026 4.21522Z" fill="#F7E28E"/>
<path d="M10.13 4.44449C9.39591 4.44449 8.74239 4.03018 9.34503 3.60714C9.57534 3.44437 9.83469 3.24657 10.0166 3.01066C10.3894 2.52692 10.4404 2.17773 11.1913 2.17773C13.101 2.17773 12.8875 3.8061 11.6693 3.98166C10.9959 4.07584 10.9875 4.44449 10.13 4.44449Z" fill="#EFD874"/>
</g>
</svg>
