<svg width="19" height="20" viewBox="0 0 19 20" fill="none" xmlns="http://www.w3.org/2000/svg">
<path d="M0.0385742 2.86833C0.0385742 2.15901 0.3222 1.47875 0.827058 0.977184C1.33192 0.475622 2.01665 0.193848 2.73063 0.193848H13.913C14.627 0.193848 15.3117 0.475622 15.8166 0.977184C16.3214 1.47875 16.6051 2.15901 16.6051 2.86833V12.8495C16.5057 12.9153 16.4104 12.9927 16.3226 13.0799L15.3626 14.0337V2.86833C15.3626 2.48639 15.2099 2.12009 14.938 1.85002C14.6662 1.57995 14.2975 1.42822 13.913 1.42822H2.73063C2.34618 1.42822 1.97748 1.57995 1.70563 1.85002C1.43378 2.12009 1.28106 2.48639 1.28106 2.86833V17.2694C1.28106 18.0643 1.93047 18.7095 2.73063 18.7095H9.41355L10.656 19.9438H2.73063C2.01665 19.9438 1.33192 19.6621 0.827058 19.1605C0.3222 18.6589 0.0385742 17.9787 0.0385742 17.2694V2.86833ZM5.42268 5.74854C5.42268 6.02135 5.31359 6.28299 5.11942 6.4759C4.92524 6.66881 4.66188 6.77718 4.38728 6.77718C4.11267 6.77718 3.84931 6.66881 3.65513 6.4759C3.46096 6.28299 3.35187 6.02135 3.35187 5.74854C3.35187 5.47572 3.46096 5.21408 3.65513 5.02117C3.84931 4.82826 4.11267 4.71989 4.38728 4.71989C4.66188 4.71989 4.92524 4.82826 5.11942 5.02117C5.31359 5.21408 5.42268 5.47572 5.42268 5.74854ZM4.38728 11.0975C4.66188 11.0975 4.92524 10.9891 5.11942 10.7962C5.31359 10.6033 5.42268 10.3417 5.42268 10.0688C5.42268 9.79603 5.31359 9.53439 5.11942 9.34149C4.92524 9.14858 4.66188 9.0402 4.38728 9.0402C4.11267 9.0402 3.84931 9.14858 3.65513 9.34149C3.46096 9.53439 3.35187 9.79603 3.35187 10.0688C3.35187 10.3417 3.46096 10.6033 3.65513 10.7962C3.84931 10.9891 4.11267 11.0975 4.38728 11.0975ZM4.38728 15.4178C4.66188 15.4178 4.92524 15.3094 5.11942 15.1165C5.31359 14.9236 5.42268 14.662 5.42268 14.3892C5.42268 14.1163 5.31359 13.8547 5.11942 13.6618C4.92524 13.4689 4.66188 13.3605 4.38728 13.3605C4.11267 13.3605 3.84931 13.4689 3.65513 13.6618C3.46096 13.8547 3.35187 14.1163 3.35187 14.3892C3.35187 14.662 3.46096 14.9236 3.65513 15.1165C3.84931 15.3094 4.11267 15.4178 4.38728 15.4178ZM7.28641 5.13135C7.12165 5.13135 6.96363 5.19637 6.84713 5.31212C6.73062 5.42786 6.66517 5.58485 6.66517 5.74854C6.66517 5.91222 6.73062 6.06921 6.84713 6.18495C6.96363 6.3007 7.12165 6.36572 7.28641 6.36572H12.6705C12.8353 6.36572 12.9933 6.3007 13.1098 6.18495C13.2263 6.06921 13.2918 5.91222 13.2918 5.74854C13.2918 5.58485 13.2263 5.42786 13.1098 5.31212C12.9933 5.19637 12.8353 5.13135 12.6705 5.13135H7.28641ZM6.66517 10.0688C6.66517 9.90516 6.73062 9.74818 6.84713 9.63243C6.96363 9.51669 7.12165 9.45166 7.28641 9.45166H12.6705C12.8353 9.45166 12.9933 9.51669 13.1098 9.63243C13.2263 9.74818 13.2918 9.90516 13.2918 10.0688C13.2918 10.2325 13.2263 10.3895 13.1098 10.5053C12.9933 10.621 12.8353 10.686 12.6705 10.686H7.28641C7.12165 10.686 6.96363 10.621 6.84713 10.5053C6.73062 10.3895 6.66517 10.2325 6.66517 10.0688ZM7.28641 13.772C7.12165 13.772 6.96363 13.837 6.84713 13.9527C6.73062 14.0685 6.66517 14.2255 6.66517 14.3892C6.66517 14.5528 6.73062 14.7098 6.84713 14.8256C6.96363 14.9413 7.12165 15.0063 7.28641 15.0063H12.6705C12.8353 15.0063 12.9933 14.9413 13.1098 14.8256C13.2263 14.7098 13.2918 14.5528 13.2918 14.3892C13.2918 14.2255 13.2263 14.0685 13.1098 13.9527C12.9933 13.837 12.8353 13.772 12.6705 13.772H7.28641ZM18.0795 14.8253L13.1095 19.7628C12.993 19.8784 12.8351 19.9433 12.6705 19.9433C12.5059 19.9433 12.348 19.8784 12.2315 19.7628L9.74819 17.2957C9.63845 17.1787 9.57871 17.024 9.58155 16.8641C9.58439 16.7042 9.64959 16.5516 9.76341 16.4385C9.87724 16.3255 10.0308 16.2607 10.1917 16.2579C10.3527 16.255 10.5084 16.3144 10.6262 16.4234L12.6705 18.4535L17.2015 13.9522C17.2588 13.8933 17.3274 13.8463 17.4032 13.814C17.479 13.7817 17.5605 13.7647 17.643 13.764C17.7255 13.7633 17.8073 13.779 17.8836 13.8101C17.9599 13.8411 18.0293 13.887 18.0876 13.945C18.1459 14.0029 18.192 14.0719 18.2232 14.1477C18.2544 14.2236 18.2701 14.3049 18.2693 14.3868C18.2686 14.4688 18.2514 14.5498 18.2188 14.625C18.1862 14.7003 18.1388 14.7684 18.0795 14.8253Z" fill="black"/>
</svg>
