<svg width="22" height="20" viewBox="0 0 22 20" fill="none" xmlns="http://www.w3.org/2000/svg">
<path d="M19.6331 0.193848H1.63609C1.20218 0.193848 0.786028 0.374781 0.479201 0.696844C0.172374 1.01891 2.09857e-07 1.45572 2.09857e-07 1.91119V19.0846C-9.97092e-05 19.231 0.0354827 19.375 0.103365 19.503C0.171247 19.6309 0.269174 19.7385 0.387837 19.8155C0.506499 19.8925 0.641955 19.9364 0.781328 19.943C0.9207 19.9496 1.05936 19.9186 1.18412 19.8531L4.09024 18.3268L6.99635 19.8531C7.11 19.9128 7.23534 19.9438 7.36243 19.9438C7.48951 19.9438 7.61485 19.9128 7.7285 19.8531L10.6346 18.3268L13.5407 19.8531C13.6544 19.9128 13.7797 19.9438 13.9068 19.9438C14.0339 19.9438 14.1592 19.9128 14.2729 19.8531L17.179 18.3268L20.0851 19.8531C20.2099 19.9186 20.3485 19.9496 20.4879 19.943C20.6273 19.9364 20.7627 19.8925 20.8814 19.8155C21.0001 19.7385 21.098 19.6309 21.1659 19.503C21.2337 19.375 21.2693 19.231 21.2692 19.0846V1.91119C21.2692 1.45572 21.0969 1.01891 20.79 0.696844C20.4832 0.374781 20.0671 0.193848 19.6331 0.193848ZM19.6331 17.6957L17.5451 16.5987C17.4314 16.539 17.3061 16.5079 17.179 16.5079C17.0519 16.5079 16.9266 16.539 16.8129 16.5987L13.9068 18.125L11.0007 16.5987C10.887 16.539 10.7617 16.5079 10.6346 16.5079C10.5075 16.5079 10.3822 16.539 10.2685 16.5987L7.36243 18.125L4.45631 16.5987C4.34266 16.539 4.21732 16.5079 4.09024 16.5079C3.96315 16.5079 3.83781 16.539 3.72416 16.5987L1.63609 17.6957V1.91119H19.6331V17.6957ZM3.72416 13.8424C3.82029 13.8929 3.92498 13.9231 4.03222 13.9311C4.13946 13.9391 4.24716 13.9249 4.34916 13.8892C4.45116 13.8535 4.54545 13.7971 4.62666 13.7231C4.70786 13.6492 4.77437 13.5591 4.82239 13.4581L5.41343 12.2152H9.31142L9.90246 13.4581C9.95054 13.5591 10.0171 13.6491 10.0983 13.723C10.1795 13.7969 10.2738 13.8533 10.3758 13.889C10.4777 13.9247 10.5854 13.9389 10.6926 13.9309C10.7999 13.9229 10.9045 13.8929 11.0007 13.8424C11.0968 13.7919 11.1826 13.7221 11.253 13.6368C11.3234 13.5516 11.3772 13.4526 11.4112 13.3456C11.4452 13.2385 11.4587 13.1255 11.4511 13.013C11.4435 12.9004 11.4148 12.7905 11.3668 12.6896L8.09458 5.82028C8.02673 5.67739 7.92228 5.55718 7.79294 5.47316C7.66361 5.38914 7.51452 5.34463 7.36243 5.34463C7.21033 5.34463 7.06124 5.38914 6.93191 5.47316C6.80257 5.55718 6.69812 5.67739 6.63027 5.82028L3.35808 12.6896C3.30994 12.7905 3.28122 12.9004 3.27356 13.013C3.26591 13.1255 3.27947 13.2386 3.31347 13.3457C3.34747 13.4527 3.40124 13.5517 3.47171 13.6369C3.54218 13.7222 3.62796 13.792 3.72416 13.8424ZM7.36243 8.12473L8.49338 10.4979H6.23148L7.36243 8.12473ZM11.4527 9.63921C11.4527 9.41147 11.5388 9.19307 11.6923 9.03203C11.8457 8.871 12.0537 8.78054 12.2707 8.78054H13.9068V7.0632C13.9068 6.83547 13.993 6.61706 14.1464 6.45603C14.2998 6.295 14.5079 6.20453 14.7249 6.20453C14.9418 6.20453 15.1499 6.295 15.3033 6.45603C15.4567 6.61706 15.5429 6.83547 15.5429 7.0632V8.78054H17.179C17.396 8.78054 17.604 8.871 17.7574 9.03203C17.9109 9.19307 17.997 9.41147 17.997 9.63921C17.997 9.86694 17.9109 10.0853 17.7574 10.2464C17.604 10.4074 17.396 10.4979 17.179 10.4979H15.5429V12.2152C15.5429 12.4429 15.4567 12.6614 15.3033 12.8224C15.1499 12.9834 14.9418 13.0739 14.7249 13.0739C14.5079 13.0739 14.2998 12.9834 14.1464 12.8224C13.993 12.6614 13.9068 12.4429 13.9068 12.2152V10.4979H12.2707C12.0537 10.4979 11.8457 10.4074 11.6923 10.2464C11.5388 10.0853 11.4527 9.86694 11.4527 9.63921Z" fill="black"/>
</svg>
