<svg width="23" height="19" viewBox="0 0 23 19" fill="none" xmlns="http://www.w3.org/2000/svg">
<path d="M19.9219 14.9443H20.0168H20.3729C21.0114 14.9443 21.6222 14.7123 22.0713 14.3016C22.5201 13.8912 22.7704 13.3365 22.7704 12.7601V5.59704C22.7704 4.39921 21.7045 3.41284 20.3729 3.41284H19.6607C19.4 3.41284 19.1515 3.50763 18.9695 3.67405C18.7878 3.84022 18.6875 4.06367 18.6875 4.29467C18.6875 4.52566 18.7878 4.74912 18.9695 4.91529C19.1515 5.08171 19.4 5.1765 19.6607 5.1765H20.3729C20.4899 5.1765 20.6036 5.21892 20.6887 5.29674C20.7741 5.37482 20.8239 5.48263 20.8239 5.59704V12.7601C20.8239 12.8745 20.7741 12.9823 20.6887 13.0604C20.6036 13.1382 20.4899 13.1807 20.3729 13.1807H18.9486C18.6879 13.1807 18.4393 13.2754 18.2573 13.4419C18.0756 13.608 17.9753 13.8315 17.9753 14.0625V16.9147V17.1302L17.8163 16.9848L14.6544 14.0935L14.6519 14.0912L14.652 14.0912C14.5335 13.9749 14.3821 13.8891 14.2132 13.8439C14.0444 13.7987 13.8652 13.7959 13.6947 13.8359L13.6945 13.8359C13.5237 13.8754 13.3686 13.9561 13.2453 14.0686C13.122 14.181 13.0351 14.3209 12.9926 14.473C12.95 14.6251 12.9531 14.7846 13.0016 14.9353C13.0501 15.086 13.1425 15.2231 13.2702 15.3316L13.2729 15.3338L13.2728 15.3339L16.5386 18.3201L19.9219 14.9443ZM19.9219 14.9443V15.0393M19.9219 14.9443V15.0393M19.9219 15.0393V17.0486M19.9219 15.0393V17.0486M19.9219 17.0486C19.9211 17.4028 19.8057 17.7497 19.5891 18.0455C19.3723 18.3415 19.0637 18.5733 18.7012 18.7106C18.3386 18.8479 17.9393 18.8841 17.5539 18.8143C17.1685 18.7446 16.8154 18.5722 16.5387 18.3202L19.9219 17.0486ZM10.1337 12.3396H10.0969L10.0697 12.3644L6.4037 15.7153C6.40368 15.7154 6.40365 15.7154 6.40362 15.7154C6.12688 15.9675 5.77376 16.1398 5.38839 16.2096C5.00296 16.2793 4.60365 16.2431 4.2411 16.1058C3.87858 15.9686 3.56996 15.7367 3.35322 15.4408C3.13659 15.145 3.02121 14.7981 3.02041 14.444C3.02041 14.4439 3.02041 14.4439 3.02041 14.4439L3.02041 12.4345V12.3396H2.92546H2.56939C1.93092 12.3396 1.32012 12.1076 0.871013 11.6969C0.422189 11.2865 0.171856 10.7318 0.171856 10.1554V2.99229C0.171856 1.79446 1.2378 0.808087 2.56939 0.808087H14.6758C16.0074 0.808087 17.0733 1.79446 17.0733 2.99229V10.1554C17.0733 10.7318 16.823 11.2865 16.3741 11.6969C15.925 12.1076 15.3142 12.3396 14.6758 12.3396H10.1337ZM4.96693 14.3099V14.5254L5.12596 14.38L8.99999 10.8376L9.00008 10.8375C9.08998 10.7551 9.19722 10.6893 9.31585 10.6443C9.43448 10.5992 9.56191 10.5759 9.69079 10.5759C9.6908 10.5759 9.69081 10.5759 9.69081 10.5759H14.6758C14.7928 10.5759 14.9065 10.5335 14.9916 10.4557C15.077 10.3776 15.1268 10.2698 15.1268 10.1554V2.99229C15.1268 2.87788 15.077 2.77007 14.9916 2.69199C14.9065 2.61417 14.7928 2.57175 14.6758 2.57175H2.56939C2.45238 2.57175 2.33864 2.61417 2.25354 2.69199C2.16815 2.77007 2.11837 2.87788 2.11837 2.99229V10.1554C2.11837 10.3953 2.32858 10.5759 2.56939 10.5759H3.99367C4.2544 10.5759 4.50293 10.6707 4.68493 10.8371C4.86665 11.0033 4.96693 11.2267 4.96693 11.4577V14.3099Z" fill="black" stroke="white" stroke-width="0.189904"/>
</svg>
